<svg xmlns="http://www.w3.org/2000/svg" xmlns:xlink="http://www.w3.org/1999/xlink" width="465" height="387" viewBox="0 0 465 387"><defs><path id="5yn2a" d="M777.5 2794c0-2.5 2.5-5 5-5h329c2.5 0 5 2.5 5 5v245c0 2.5-2.5 5-5 5h-329c-2.5 0-5-2.5-5-5z"/><path id="5yn2b" d="M806.5 2779c0-2.5 2.5-5 5-5h329c2.5 0 5 2.5 5 5v245c0 2.5-2.5 5-5 5h-329c-2.5 0-5-2.5-5-5z"/><path id="5yn2c" d="M707.5 2876.348c0-100.156 81.192-181.348 181.348-181.348 100.156 0 181.349 81.192 181.349 181.348 0 100.156-81.193 181.349-181.349 181.349-100.156 0-181.348-81.193-181.348-181.349z"/><path id="5yn2i" d="M1018.474 2855.723v85.883c0 .171-.003.343-.011.515-.269 5.881-5.124 10.571-11.078 10.571h-62.337c-6.124 0-11.089-4.964-11.089-11.086v-99.436c0-5.264 3.667-9.67 8.586-10.805a11.14 11.14 0 0 1 2.503-.283h49.517c1.683 0 3.326.383 4.815 1.103 2.996 1.442 3.84 3.264 9.223 8.768 6.193 6.725 7.672 7.414 8.934 10.326.614 1.388.937 2.897.937 4.444z"/><path id="5yn2j" d="M1018.474 2855.723v85.883c0 .171-.003.343-.011.515-.806.185-1.644.282-2.504.282h-62.337c-6.124 0-11.089-4.964-11.089-11.086v-99.435c0-.175.003-.346.012-.518a11.14 11.14 0 0 1 2.503-.282h49.517c1.683 0 3.326.382 4.815 1.103a11.08 11.08 0 0 1 3.287 2.418l5.936 6.35 6.796 7.11a10.926 10.926 0 0 1 2.138 3.216c.614 1.388.937 2.897.937 4.444z"/><path id="5yn2k" d="M1046.922 2894.182v62.342c0 3.467-1.126 6.674-3.035 9.269a15.643 15.643 0 0 1-12.635 6.401h-40.72c-8.654 0-15.67-7.016-15.67-15.67v-62.342c0-6.468 3.921-12.02 9.514-14.413a15.604 15.604 0 0 1 6.156-1.257h40.72c8.656 0 15.67 7.016 15.67 15.67z"/><path id="5yn2l" d="M1046.922 2894.182v62.342c0 3.467-1.126 6.674-3.035 9.269a15.604 15.604 0 0 1-6.156 1.257h-40.72c-8.654 0-15.67-7.016-15.67-15.67v-62.343c0-3.466 1.126-6.673 3.035-9.268a15.604 15.604 0 0 1 6.156-1.257h40.72c8.656 0 15.67 7.016 15.67 15.67z"/><path id="5yn2m" d="M1016.896 2935.17v7.322a2.342 2.342 0 0 1-2.34 2.344h-7.325a2.343 2.343 0 0 1-2.343-2.344v-7.322a2.343 2.343 0 0 1 2.343-2.343h7.325a2.342 2.342 0 0 1 2.34 2.343z"/><path id="5yn2n" d="M1036.153 2892.713v7.845c0 2.79-2.26 5.052-5.052 5.052h-40.417a5.054 5.054 0 0 1-5.053-5.052v-7.845a5.054 5.054 0 0 1 5.053-5.053h40.417a5.053 5.053 0 0 1 5.052 5.053z"/><path id="5yn2o" d="M1036.153 2892.713v7.845c0 2.79-2.26 5.052-5.052 5.052h-31.844a5.054 5.054 0 0 1-5.052-5.052v-7.845a5.054 5.054 0 0 1 5.052-5.053h31.843a5.053 5.053 0 0 1 5.053 5.053z"/><path id="5yn2p" d="M997.643 2935.17v7.322a2.343 2.343 0 0 1-2.344 2.344h-7.325a2.345 2.345 0 0 1-2.343-2.344v-7.322a2.345 2.345 0 0 1 2.343-2.343h7.325a2.343 2.343 0 0 1 2.344 2.343z"/><path id="5yn2q" d="M1016.896 2916.022v7.322a2.342 2.342 0 0 1-2.34 2.343h-7.325a2.343 2.343 0 0 1-2.343-2.343v-7.322a2.343 2.343 0 0 1 2.343-2.344h7.325a2.342 2.342 0 0 1 2.34 2.344z"/><path id="5yn2r" d="M1036.385 2916.022v7.322a2.343 2.343 0 0 1-2.344 2.343h-7.322a2.343 2.343 0 0 1-2.343-2.343v-7.322a2.343 2.343 0 0 1 2.343-2.344h7.322a2.343 2.343 0 0 1 2.344 2.344z"/><path id="5yn2s" d="M997.643 2916.022v7.322a2.343 2.343 0 0 1-2.344 2.343h-7.325a2.345 2.345 0 0 1-2.343-2.343v-7.322a2.345 2.345 0 0 1 2.343-2.344h7.325a2.343 2.343 0 0 1 2.344 2.344z"/><path id="5yn2t" d="M1016.896 2953.378v7.325a2.342 2.342 0 0 1-2.34 2.343h-7.325a2.343 2.343 0 0 1-2.343-2.343v-7.325a2.343 2.343 0 0 1 2.343-2.341h7.325a2.342 2.342 0 0 1 2.34 2.34z"/><path id="5yn2u" d="M997.643 2953.378v7.325a2.343 2.343 0 0 1-2.344 2.343h-7.325a2.345 2.345 0 0 1-2.343-2.343v-7.325a2.344 2.344 0 0 1 2.343-2.341h7.325a2.343 2.343 0 0 1 2.344 2.34z"/><path id="5yn2v" d="M1036.385 2936.307v22.74c0 2.21-1.79 3.999-3.996 3.999h-4.018a3.996 3.996 0 0 1-3.995-3.998v-22.74a3.482 3.482 0 0 1 3.48-3.482h5.048a3.48 3.48 0 0 1 3.48 3.481z"/><path id="5yn2w" d="M1016.896 2935.17v2.178a2.343 2.343 0 0 1-2.34 2.343h-7.325a2.343 2.343 0 0 1-2.343-2.343v-2.178a2.343 2.343 0 0 1 2.343-2.343h7.325a2.342 2.342 0 0 1 2.34 2.343z"/><path id="5yn2x" d="M997.643 2935.17v2.178a2.343 2.343 0 0 1-2.344 2.343h-7.325a2.345 2.345 0 0 1-2.343-2.343v-2.178a2.345 2.345 0 0 1 2.343-2.343h7.325a2.343 2.343 0 0 1 2.344 2.343z"/><path id="5yn2y" d="M1016.896 2916.022v2.178a2.342 2.342 0 0 1-2.34 2.343h-7.325a2.343 2.343 0 0 1-2.343-2.343v-2.178a2.343 2.343 0 0 1 2.343-2.344h7.325a2.342 2.342 0 0 1 2.34 2.344z"/><path id="5yn2z" d="M1036.385 2916.022v2.178a2.343 2.343 0 0 1-2.344 2.343h-7.322a2.343 2.343 0 0 1-2.343-2.343v-2.178a2.343 2.343 0 0 1 2.343-2.344h7.322a2.343 2.343 0 0 1 2.344 2.344z"/><path id="5yn2A" d="M997.643 2916.022v2.178a2.343 2.343 0 0 1-2.344 2.343h-7.325a2.345 2.345 0 0 1-2.343-2.343v-2.178a2.345 2.345 0 0 1 2.343-2.344h7.325a2.343 2.343 0 0 1 2.344 2.344z"/><path id="5yn2B" d="M1016.896 2953.378v2.18a2.342 2.342 0 0 1-2.34 2.344h-7.325a2.343 2.343 0 0 1-2.343-2.344v-2.18a2.343 2.343 0 0 1 2.343-2.341h7.325a2.342 2.342 0 0 1 2.34 2.34z"/><path id="5yn2C" d="M997.643 2953.378v2.18a2.343 2.343 0 0 1-2.344 2.344h-7.325a2.345 2.345 0 0 1-2.343-2.344v-2.18a2.344 2.344 0 0 1 2.343-2.341h7.325a2.343 2.343 0 0 1 2.344 2.34z"/><path id="5yn2D" d="M1036.385 2936.307v17.597c0 2.209-1.79 3.998-3.996 3.998h-4.018a3.996 3.996 0 0 1-3.995-3.998v-17.597a3.482 3.482 0 0 1 3.48-3.48h5.048a3.48 3.48 0 0 1 3.48 3.48z"/><path id="5yn2E" d="M1017.537 2851.278h-13.895a4.263 4.263 0 0 1-4.263-4.263v-14.83a11.074 11.074 0 0 1 3.287 2.416l5.938 6.35 6.795 7.113a10.978 10.978 0 0 1 2.138 3.214z"/><path id="5yn2F" d="M967.549 2965.455a5.42 5.42 0 0 1-1.595 3.836 5.419 5.419 0 0 1-3.835 1.594h-33.266c-2.987 0-5.43-2.443-5.43-5.43 0-1.494.611-2.85 1.594-3.835a5.42 5.42 0 0 1 3.836-1.595h33.266c2.986 0 5.43 2.444 5.43 5.43z"/><path id="5yn2G" d="M967.549 2954.595a5.42 5.42 0 0 1-1.595 3.835 5.42 5.42 0 0 1-3.835 1.595h-33.266c-2.987 0-5.43-2.443-5.43-5.43a5.42 5.42 0 0 1 1.594-3.835 5.418 5.418 0 0 1 3.836-1.595h33.266c2.986 0 5.43 2.444 5.43 5.43z"/><path id="5yn2H" d="M967.549 2943.735a5.42 5.42 0 0 1-1.595 3.835 5.419 5.419 0 0 1-3.835 1.595h-33.266c-2.987 0-5.43-2.443-5.43-5.43a5.42 5.42 0 0 1 1.594-3.835 5.42 5.42 0 0 1 3.836-1.595h33.266c2.986 0 5.43 2.444 5.43 5.43z"/><path id="5yn2I" d="M967.549 2932.875a5.42 5.42 0 0 1-1.595 3.835 5.42 5.42 0 0 1-3.835 1.595h-33.266c-2.987 0-5.43-2.444-5.43-5.43 0-1.063.311-2.058.846-2.898a5.418 5.418 0 0 1 4.584-2.532h33.266c2.986 0 5.43 2.443 5.43 5.43z"/><path id="5yn2J" d="M962.118 2927.445h-33.265c-2.987 0-5.43-2.443-5.43-5.43 0-2.986 2.443-5.43 5.43-5.43h33.265c2.986 0 5.43 2.444 5.43 5.43 0 2.987-2.444 5.43-5.43 5.43z"/><path id="5yn2K" d="M948.445 2953.073c-.346-8.105-6.093-14.704-13.623-16.47a17.693 17.693 0 0 0-4.79-.449h-6.923c-15.697.68-23.013 20.23-10.993 30.898a17.63 17.63 0 0 0 12.506 4.452h5.41v-.006c.493.02.991.025 1.494.004a17.973 17.973 0 0 0 3.286-.449c7.677-1.792 13.355-8.55 13.636-16.584v-.02c.017-.455.017-.913-.003-1.376z"/><path id="5yn2L" d="M948.448 2954.448v.02c-.28 8.034-5.959 14.793-13.635 16.585-7.525-1.77-13.272-8.365-13.618-16.468-.003-.04-.006-.077-.006-.117v-.02c-.3-8.573 5.559-15.958 13.633-17.845 7.53 1.766 13.277 8.365 13.623 16.47.02.463.02.92.003 1.375z"/><path id="5yn2M" d="M1044.778 2956.524c0 7.46-6.067 13.527-13.526 13.527h-40.72c-7.456 0-13.526-6.067-13.526-13.527v-62.342c0-7.46 6.07-13.527 13.526-13.527h40.72c7.46 0 13.527 6.067 13.527 13.527v62.342zm-72.06-6.119h-4.126a7.586 7.586 0 0 0-.998-1.24 7.7 7.7 0 0 0 0-10.86 7.688 7.688 0 0 0 2.24-5.43 7.688 7.688 0 0 0-2.24-5.43c4.807-4.847 1.372-13.146-5.476-13.146h-25.872v-72.129c0-4.852 3.95-8.802 8.802-8.802h52.046v17.91a2.286 2.286 0 0 0 2.286 2.287h16.536c.477 1.852.183 1.24.272 22.803h-25.656c-9.823 0-17.813 7.99-17.813 17.813zm-7.481 4.573a3.145 3.145 0 0 1-3.118 2.761h-11.963c.414-1.983.531-4.121.277-6.287h11.686c1.926 0 3.363 1.723 3.118 3.526zm-21.572 13.621a19.586 19.586 0 0 0 4.913-6.287h13.54a3.15 3.15 0 0 1 3.144 3.143 3.148 3.148 0 0 1-3.143 3.144zm-11.903.303c-8.365.36-15.447-6.119-15.802-14.504-.574-13.35 15.37-21.037 25.41-11.82 9.897 9.085 3.873 25.77-9.608 26.324zm-19.508-4.747zm2.409-.006a19.306 19.306 0 0 0 3.075 3.721 15.104 15.104 0 0 1-5.484-3.715c1.403-.003 2.217.006 2.409-.006zm-5.262-4.28a14.997 14.997 0 0 1-1.074-3.619h3.492c.626 3.55.66 2.938.818 3.618zm-.368-11.333h3.33c-.075.32-.452 1.552-.624 3.427h-3.518c.137-1.177.409-2.326.812-3.427zm8.696-8.905zm-3.6 4.619h-2.664a15.1 15.1 0 0 1 6.264-4.619 19.728 19.728 0 0 0-3.6 4.619zm51.133-.515a3.147 3.147 0 0 1-3.143 3.144h-12.795a19.233 19.233 0 0 0-3.881-6.287h16.676a3.15 3.15 0 0 1 3.143 3.143zm-3.143-14.004a3.15 3.15 0 0 1 3.143 3.144 3.147 3.147 0 0 1-3.143 3.144H939.14a19.274 19.274 0 0 0-8.814-1.706h-4.267a3.09 3.09 0 0 1-.351-1.438 3.15 3.15 0 0 1 3.144-3.144zm-33.266-10.86h33.266a3.15 3.15 0 0 1 3.143 3.144 3.147 3.147 0 0 1-3.143 3.144h-33.266a3.147 3.147 0 0 1-3.144-3.144 3.149 3.149 0 0 1 3.144-3.144zm72.814-81.99zm11.383 12.034s.002 0 .005.006h.003a.062.062 0 0 0 .011.014l.003.003a.048.048 0 0 0 .017.017c.003.003.006.005.009.011.003.003.006.003.006.006.002.003.005.003.008.008.006.003.009.009.011.012h-11.457v-12.112c8.98 9.491 11.004 11.632 11.384 12.035zm18.202 27.453h-10.492v-20.645c0-3.536-1.406-6.831-3.707-9.24l-6.778-7.094c-5.753-5.927-6.48-7.602-9.906-9.265-1.592-.794-3.69-1.329-5.804-1.329h-49.517c-7.376 0-13.375 6.002-13.375 13.375v72.129h-2.82c-4.256 0-7.717 3.46-7.717 7.716 0 2.118.858 4.035 2.24 5.43a7.688 7.688 0 0 0-2.24 5.43c0 .794.112 1.266.152 1.526-16.745 1.703-23.416 22.429-11.16 33.678 3.7 3.398 8.613 5.324 13.94 5.107l38.05-.014c4.253 0 7.717-3.461 7.717-7.717a7.688 7.688 0 0 0-2.24-5.43 7.676 7.676 0 0 0 2.228-5.047h2.896v1.546c0 9.823 7.99 17.814 17.813 17.814h40.72c9.822 0 17.813-7.99 17.813-17.814v-62.342c0-9.823-7.99-17.814-17.813-17.814z"/><path id="5yn2N" d="M998.46 2903.467h-7.776c-1.6 0-2.91-1.31-2.91-2.91v-7.844c0-1.6 1.31-2.91 2.91-2.91h40.417a2.912 2.912 0 0 1 2.909 2.91v7.845a2.912 2.912 0 0 1-2.91 2.91h-23.397a2.143 2.143 0 0 0 0 4.286h23.398c3.97 0 7.196-3.23 7.196-7.196v-7.845c0-3.967-3.227-7.197-7.196-7.197h-40.417a7.196 7.196 0 0 0-7.196 7.197v7.845a7.196 7.196 0 0 0 7.196 7.196h7.776a2.143 2.143 0 0 0 0-4.287z"/><path id="5yn2O" d="M987.774 2935.17a.2.2 0 0 1 .2-.2h7.325a.2.2 0 0 1 .2.2v7.322a.2.2 0 0 1-.2.2h-7.325a.2.2 0 0 1-.2-.2zm.2 11.809h7.325a4.49 4.49 0 0 0 4.487-4.487v-7.322a4.49 4.49 0 0 0-4.487-4.487h-7.325a4.493 4.493 0 0 0-4.486 4.487v7.322a4.492 4.492 0 0 0 4.486 4.487z"/><path id="5yn2P" d="M1034.241 2923.344c0 .111-.088.2-.2.2h-7.322a.2.2 0 0 1-.2-.2c.089-7.245-.186-7.522.2-7.522h7.322c.112 0 .2.088.2.2zm-.2-11.809h-7.322a4.49 4.49 0 0 0-4.487 4.487v7.322a4.49 4.49 0 0 0 4.487 4.487h7.322a4.49 4.49 0 0 0 4.487-4.487v-7.322a4.49 4.49 0 0 0-4.487-4.487z"/><path id="5yn2Q" d="M987.774 2916.022a.2.2 0 0 1 .2-.2h7.325a.2.2 0 0 1 .2.2v7.322a.2.2 0 0 1-.2.2h-7.325a.2.2 0 0 1-.2-.2zm.2 11.809h7.325a4.49 4.49 0 0 0 4.487-4.487v-7.322a4.49 4.49 0 0 0-4.487-4.487h-7.325a4.493 4.493 0 0 0-4.486 4.487v7.322a4.492 4.492 0 0 0 4.486 4.487z"/><path id="5yn2R" d="M995.3 2960.903c-7.237-.089-7.526.185-7.526-.2 0-7.754-.085-7.523.2-7.523h7.325c.352 0 .135.49.2 1.798 0 0 .186 5.925-.2 5.925zm3.357-10.498a4.485 4.485 0 0 0-3.358-1.511h-7.325a4.473 4.473 0 0 0-3.355 1.511c-1.557 1.747-1.028 3.65-1.131 4.573v5.725a4.493 4.493 0 0 0 4.486 4.486h7.325a4.49 4.49 0 0 0 4.487-4.486v-5.725c-.103-.903.42-2.826-1.129-4.573z"/><path id="5yn2S" d="M1034.241 2959.048a1.854 1.854 0 0 1-1.852 1.855h-4.018a1.856 1.856 0 0 1-1.852-1.855v-22.74c0-.738.6-1.338 1.338-1.338h5.047c.737 0 1.337.6 1.337 1.337v22.74zm-1.337-28.365h-5.047a5.632 5.632 0 0 0-5.625 5.624v22.74a6.148 6.148 0 0 0 6.14 6.143h4.017a6.146 6.146 0 0 0 6.14-6.142v-22.74a5.63 5.63 0 0 0-5.625-5.625z"/><path id="5yn2T" d="M959.01 2891.057c-2.614-.96-4.502-1.654-4.502-4.075 0-2.207 1.466-3.326 4.356-3.326 3.068 0 3.894 1.35 4.975 1.35 1.176 0 1.827-1.248 1.827-2.111 0-1.786-2.913-2.671-5.517-2.905v-1.61c0-1.12-.91-2.031-2.03-2.031-1.12 0-2.032.911-2.032 2.031v1.867c-3.56.845-5.517 3.304-5.517 6.948 0 4.989 3.673 6.369 6.625 7.478 2.89 1.086 5.173 1.944 5.173 5.244 0 2.725-1.514 4.107-4.499 4.107-4.368 0-4.41-2.95-6.076-2.95-1.031 0-1.863 1.155-1.863 2.112 0 1.689 2.516 3.909 6.157 4.485v1.556c0 1.12.911 2.03 2.031 2.03s2.031-.91 2.031-2.03v-1.598c3.917-.737 6.157-3.613 6.157-7.926 0-5.966-4.046-7.452-7.296-8.646z"/><path id="5yn2U" d="M1014.556 2960.903c-7.236-.089-7.525.185-7.525-.2v-7.325a.2.2 0 0 1 .2-.198h7.325c.108 0 .197.09.197.198-.086 7.253.183 7.525-.197 7.525zm0-12.01h-7.325a4.484 4.484 0 0 0-3.358 1.512c-1.552 1.75-1.026 3.65-1.129 4.573v5.725a4.49 4.49 0 0 0 4.487 4.486h7.325a4.49 4.49 0 0 0 4.484-4.486v-7.325a4.47 4.47 0 0 0-1.375-3.227 4.469 4.469 0 0 0-3.11-1.257z"/><path id="5yn2V" d="M1014.753 2923.344c0 .111-.089.2-.197.2h-7.325a.2.2 0 0 1-.2-.2v-7.322c0-.386.266-.114 7.525-.2.108 0 .197.088.197.2zm-.197-11.809h-7.325a4.49 4.49 0 0 0-4.487 4.487v7.322a4.49 4.49 0 0 0 4.487 4.487h7.325a4.492 4.492 0 0 0 4.484-4.487v-7.322a4.492 4.492 0 0 0-4.484-4.487z"/><path id="5yn2W" d="M1014.753 2942.492c0 .111-.089.2-.197.2h-7.325a.2.2 0 0 1-.2-.2v-7.322a.2.2 0 0 1 .2-.2h7.325c.108 0 .197.088.197.2zm1.435-11.5a4.42 4.42 0 0 0-1.632-.31h-7.325a4.49 4.49 0 0 0-4.487 4.488v7.322a4.49 4.49 0 0 0 4.487 4.487h7.325a4.49 4.49 0 0 0 4.484-4.487v-7.322a4.492 4.492 0 0 0-2.852-4.178z"/><path id="5yn2X" d="M996.8 2862.373h5.384a2.142 2.142 0 1 0 0-4.287H996.8a2.144 2.144 0 0 0 0 4.287z"/><path id="5yn2Y" d="M950.216 2862.373h38.01a2.142 2.142 0 1 0 0-4.287h-38.01a2.144 2.144 0 0 0 0 4.287z"/><path id="5yn2Z" d="M957.029 2873.013a2.144 2.144 0 0 0 0-4.287h-6.813a2.144 2.144 0 0 0 0 4.287z"/><path id="5yn2aa" d="M1004.328 2870.87c0-1.184-.96-2.144-2.144-2.144h-36.582a2.144 2.144 0 0 0 0 4.287h36.582c1.183 0 2.144-.96 2.144-2.144z"/><path id="5yn2ab" d="M930.326 2949.366c0-.538.199-.693.384-.796.576-.318 1.897-.412 3.108.21.321.165.685.353 1.16.353 2.114 0 3.786-3.928-1.264-4.797v-.135a2.175 2.175 0 0 0-2.172-2.172 2.175 2.175 0 0 0-2.172 2.172v.412c-2.116.768-3.313 2.513-3.313 4.882 0 3.655 2.655 4.653 4.595 5.382 1.85.695 2.49 1 2.49 2.257 0 .787-.212 1.515-1.75 1.515-2.24 0-1.972-1.771-3.649-1.771-1.185 0-2.071 1.172-2.071 2.22 0 1.485 1.544 2.894 3.698 3.466v.162c0 1.198.974 2.172 2.172 2.172a2.174 2.174 0 0 0 2.172-2.172v-.22c2.33-.748 3.697-2.755 3.697-5.5 0-6.513-7.085-5.535-7.085-7.64z"/><linearGradient id="5yn2d" x1="888.85" x2="888.85" y1="3057.7" y2="2695" gradientUnits="userSpaceOnUse"><stop offset="0" stop-color="#fff"/><stop offset="1" stop-color="#e6ebee"/></linearGradient><mask id="5yn2f" width="2" height="2" x="-1" y="-1"><path fill="#fff" d="M777 2789h340v255H777z"/><use xlink:href="#5yn2a"/></mask><filter id="5yn2e" width="426" height="356" x="734" y="2746" filterUnits="userSpaceOnUse"><feOffset dy="15" in="SourceGraphic" result="FeOffset1184Out"/><feGaussianBlur in="FeOffset1184Out" result="FeGaussianBlur1185Out" stdDeviation="13.2 13.2"/></filter><mask id="5yn2h" width="2" height="2" x="-1" y="-1"><path fill="#fff" d="M806 2774h340v255H806z"/><use xlink:href="#5yn2b"/></mask><filter id="5yn2g" width="426" height="356" x="763" y="2731" filterUnits="userSpaceOnUse"><feOffset dy="15" in="SourceGraphic" result="FeOffset1200Out"/><feGaussianBlur in="FeOffset1200Out" result="FeGaussianBlur1201Out" stdDeviation="13.2 13.2"/></filter></defs><g><g transform="translate(-707 -2695)"><g><use fill="url(#5yn2d)" xlink:href="#5yn2c"/></g><g opacity=".37"><g filter="url(#5yn2e)"><use fill="none" stroke-opacity=".16" stroke-width="0" mask="url(&quot;#5yn2f&quot;)" xlink:href="#5yn2a"/><use fill-opacity=".16" xlink:href="#5yn2a"/></g><use fill="#fff" xlink:href="#5yn2a"/></g><g><g filter="url(#5yn2g)"><use fill="none" stroke-opacity=".16" stroke-width="0" mask="url(&quot;#5yn2h&quot;)" xlink:href="#5yn2b"/><use fill-opacity=".16" xlink:href="#5yn2b"/></g><use fill="#fff" xlink:href="#5yn2b"/></g><g><g><use fill="#d2d2d2" xlink:href="#5yn2i"/></g><g><use fill="#e5ebf1" xlink:href="#5yn2j"/></g><g><use fill="#308ce5" xlink:href="#5yn2k"/></g><g><use fill="#0074e4" xlink:href="#5yn2l"/></g><g><use fill="#e5ebf1" xlink:href="#5yn2m"/></g><g><use fill="#e8eef2" xlink:href="#5yn2n"/></g><g><use fill="#dbdbdb" xlink:href="#5yn2o"/></g><g><g><use fill="#e5ebf1" xlink:href="#5yn2p"/></g><g><use fill="#e5ebf1" xlink:href="#5yn2q"/></g></g><g><use fill="#e5ebf1" xlink:href="#5yn2r"/></g><g><g><use fill="#e5ebf1" xlink:href="#5yn2s"/></g><g><use fill="#e5ebf1" xlink:href="#5yn2t"/></g><g><use fill="#e5ebf1" xlink:href="#5yn2u"/></g></g><g><use fill="#d2d2d2" xlink:href="#5yn2v"/></g><g><g><use fill="#d2d2d2" xlink:href="#5yn2w"/></g><g><use fill="#d2d2d2" xlink:href="#5yn2x"/></g><g><use fill="#d2d2d2" xlink:href="#5yn2y"/></g></g><g><use fill="#d2d2d2" xlink:href="#5yn2z"/></g><g><g><use fill="#d2d2d2" xlink:href="#5yn2A"/></g><g><use fill="#d2d2d2" xlink:href="#5yn2B"/></g><g><use fill="#d2d2d2" xlink:href="#5yn2C"/></g></g><g><use fill="#e5ebf1" xlink:href="#5yn2D"/></g><g><use fill="#0074e4" xlink:href="#5yn2E"/></g><g><use fill="#53a3f1" xlink:href="#5yn2F"/></g><g><use fill="#53a3f1" xlink:href="#5yn2G"/></g><g><use fill="#53a3f1" xlink:href="#5yn2H"/></g><g><use fill="#53a3f1" xlink:href="#5yn2I"/></g><g><use fill="#53a3f1" xlink:href="#5yn2J"/></g><g><use fill="#3188dc" xlink:href="#5yn2K"/></g><g><use fill="#53a3f1" xlink:href="#5yn2L"/></g><g><use fill="#3d3d63" xlink:href="#5yn2M"/></g><g><use fill="#3d3d63" xlink:href="#5yn2N"/></g><g><use fill="#3d3d63" xlink:href="#5yn2O"/></g><g><use fill="#3d3d63" xlink:href="#5yn2P"/></g><g><use fill="#3d3d63" xlink:href="#5yn2Q"/></g><g><use fill="#3d3d63" xlink:href="#5yn2R"/></g><g><use fill="#3d3d63" xlink:href="#5yn2S"/></g><g><use fill="#3d3d63" xlink:href="#5yn2T"/></g><g><use fill="#3d3d63" xlink:href="#5yn2U"/></g><g><use fill="#3d3d63" xlink:href="#5yn2V"/></g><g><use fill="#3d3d63" xlink:href="#5yn2W"/></g><g><use fill="#3d3d63" xlink:href="#5yn2X"/></g><g><use fill="#3d3d63" xlink:href="#5yn2Y"/></g><g><use fill="#3d3d63" xlink:href="#5yn2Z"/></g><g><use fill="#3d3d63" xlink:href="#5yn2aa"/></g><g><use fill="#e5ebf1" xlink:href="#5yn2ab"/></g></g></g></g></svg>