<svg xmlns="http://www.w3.org/2000/svg" viewBox="0 0 168 168"><defs><style>.a{fill:none;}.b{fill:#fcd9ba;}.c{fill:#ffdead;}.d{fill:#0074e4;}.e{fill:#3895ef;}.f{fill:#f8e0b7;}.g{fill:#fff;}.h{fill:#e5ebf1;}.i{fill:#f3d49c;}.j{fill:#3d3d63;}</style></defs><rect class="a" width="168" height="168"/><path class="b" d="M61.224,23.682h0a21.812,21.812,0,0,0,18.144-6.216l.9-.9,29.484,29.484-3.472,3.472A23.1,23.1,0,0,0,99.948,61.4h0a23.184,23.184,0,0,1-6.3,11.872l-29.2,29.176L37.228,75.23,25.5,63.526,17.46,55.49,43.08,29.87A21.7,21.7,0,0,1,61.224,23.682Z" transform="translate(31.428 29.826)"/><path class="c" d="M72.824,47.724c2.1-7-21.728-16.492-21.728-16.492L34.3,26.08,32,32.38,45.412,45.988,54.4,62.62,60,63.656l7.532-7.5A23.24,23.24,0,0,0,72.824,47.724Z" transform="translate(57.6 46.944)"/><path class="a" d="M61.224,23.682h0a21.812,21.812,0,0,0,18.144-6.216l.9-.9,29.484,29.484-3.472,3.472A23.1,23.1,0,0,0,99.948,61.4h0a23.184,23.184,0,0,1-6.3,11.872l-29.2,29.176L37.228,75.23,25.5,63.526,17.46,55.49,43.08,29.87A21.7,21.7,0,0,1,61.224,23.682Z" transform="translate(31.428 29.826)"/><rect class="d" width="17.668" height="57.4" rx="2" transform="translate(49.526 28.52) rotate(45)"/><path class="e" d="M11.406,21.21,23.894,33.7l-5.6,5.6a5.6,5.6,0,0,1-7.924,0l-4.7-4.424a5.6,5.6,0,0,1,0-7.924Z" transform="translate(7.242 38.178)"/><rect class="a" width="17.668" height="57.4" rx="2" transform="translate(49.526 28.52) rotate(45)"/><path class="f" d="M69.724,39.4,59.112,49.984,48.136,39.008,60.988,26.156l-11.2-1.4a8.4,8.4,0,0,1-4.9-2.408L39.12,16.58,9.58,46.036l9.184,9.184a11.62,11.62,0,0,1,3.024,5.236h0a29.54,29.54,0,0,0,7.644,13.3L54.8,99.152,80.392,73.56,92.124,61.828Z" transform="translate(17.244 29.844)"/><rect class="g" width="17.668" height="57.4" rx="2" transform="translate(159.057 69.121) rotate(135)"/><path class="h" d="M61.368,21.21,48.88,33.7l5.6,5.6a5.6,5.6,0,0,0,7.924,0l4.564-4.564a5.6,5.6,0,0,0,0-7.924Z" transform="translate(87.984 38.178)"/><rect class="a" width="17.668" height="57.4" rx="2" transform="translate(159.057 69.121) rotate(135)"/><path class="i" d="M39.724,27.4l28.42,28.392a6.58,6.58,0,0,1,0,9.324h0a6.636,6.636,0,0,1-9.352,0L30.4,36.724" transform="translate(54.72 49.32)"/><path class="i" d="M36.394,30.73,72.15,66.486a6.58,6.58,0,0,1,0,9.324h0a6.58,6.58,0,0,1-9.324,0L27.07,40.054" transform="translate(48.726 55.314)"/><path class="i" d="M33.064,34.06,61.456,62.452a6.636,6.636,0,0,1,0,9.352h0a6.58,6.58,0,0,1-9.324,0L23.74,43.384" transform="translate(42.732 61.308)"/><path class="i" d="M29.734,37.39,50.986,58.7a6.58,6.58,0,0,1,0,9.324h0a6.58,6.58,0,0,1-9.324,0L20.41,46.742" transform="translate(36.738 67.302)"/><circle class="c" cx="6.608" cy="6.608" r="6.608" transform="translate(46.396 103.264)"/><circle class="c" cx="6.608" cy="6.608" r="6.608" transform="translate(55.72 112.588)"/><circle class="c" cx="6.608" cy="6.608" r="6.608" transform="translate(65.044 121.912)"/><path class="c" d="M72.4,40.252a35.392,35.392,0,0,1-16.436-4.48,10.556,10.556,0,0,0-12.628,1.652l-9.268,9.268a7.728,7.728,0,0,1-10.976,0h0a7.728,7.728,0,0,1,0-10.976L37.678,21.1" transform="translate(37.446 37.98)"/><path class="j" d="M151.512,45.13,118.836,12.454a8.4,8.4,0,0,0-11.76,0l-4.564,4.564a8.4,8.4,0,0,0-.364,11.34A19.152,19.152,0,0,1,87.476,32.7a24.724,24.724,0,0,0-14.224,2.548h-.2l-11.2-1.428a5.6,5.6,0,0,1-3.3-1.624L54.828,28.47a8.4,8.4,0,0,0-.308-11.4L49.956,12.51a8.4,8.4,0,0,0-11.76,0L5.464,45.13a8.4,8.4,0,0,0,0,11.76l4.564,4.564h0a8.4,8.4,0,0,0,11.4.308l7.168,7.14a9.268,9.268,0,0,1,2.3,4,32.256,32.256,0,0,0,8.4,14.476h0a9.3,9.3,0,0,0,8.2,13.664h0a9.268,9.268,0,0,0,9.324,9.324h0a9.436,9.436,0,0,0,2.8,6.608,9.24,9.24,0,0,0,10.948,1.6l.5.5a9.268,9.268,0,0,0,15.288-3.36l1.148,1.148a9.3,9.3,0,0,0,13.188,0,8.82,8.82,0,0,0,2.044-3.36l1.372,1.372A9.325,9.325,0,0,0,117.3,101.69l-1.372-1.372a8.82,8.82,0,0,0,3.332-2.128,9.24,9.24,0,0,0,2.8-6.58,9.1,9.1,0,0,0-1.064-4.228l.532-.56a25.48,25.48,0,0,0,7.084-13.244,20.048,20.048,0,0,1,5.6-10.472l1.428-1.428a8.4,8.4,0,0,0,11.4-.308h0l4.564-4.564A8.4,8.4,0,0,0,151.512,45.13ZM13.892,57.506,9.328,53.054a2.8,2.8,0,0,1,0-3.948l32.76-32.788a2.8,2.8,0,0,1,4.06,0l4.34,4.564a2.8,2.8,0,0,1,0,4.06L17.952,57.506a2.8,2.8,0,0,1-4.06,0Zm31,37.016a3.911,3.911,0,1,1,5.53-.07,3.892,3.892,0,0,1-5.53.07Zm9.324,9.324a3.864,3.864,0,0,1,2.8-6.608,3.78,3.78,0,0,1,2.8,1.12,3.92,3.92,0,0,1,0,5.6h0a3.948,3.948,0,0,1-5.74-.112Zm9.324,9.324a3.864,3.864,0,0,1,0-5.6h0a3.948,3.948,0,0,1,2.8-1.12,3.864,3.864,0,1,1-2.8,6.608ZM115.56,94.438a4,4,0,0,1-5.6,0h0L81.54,65.906a2.8,2.8,0,1,0-3.864,3.864l35.756,35.868a3.892,3.892,0,0,1,1.148,2.8,3.808,3.808,0,0,1-1.148,2.8,3.892,3.892,0,0,1-5.46,0l-35.756-35.9a2.8,2.8,0,0,0-3.864,3.864L96.772,107.6a3.96,3.96,0,1,1-5.6,5.6L62.892,84.666a2.8,2.8,0,0,0-3.864,3.864l21.28,21.28a3.96,3.96,0,0,1-5.6,5.6l-.5-.5A9.24,9.24,0,0,0,66,101.27a9.128,9.128,0,0,0-9.324-9.24,9.268,9.268,0,0,0-13.636-8.4h0a26.768,26.768,0,0,1-6.888-12.124,14,14,0,0,0-3.724-6.44l-7.14-7.112L50.936,32.306l3.7,3.7A11.2,11.2,0,0,0,61.1,39.166l5.768.728L53.092,53.67a10.5,10.5,0,1,0,14.84,14.84L77.2,59.242a7.756,7.756,0,0,1,6.356-2.156L115.42,88.95a3.92,3.92,0,0,1,0,5.488Zm7.728-21.84a20.356,20.356,0,0,1-5.6,10.472l-.2.2L95.848,61.678a37.071,37.071,0,0,0,8.4,1.176,2.6,2.6,0,0,0,2.8-2.66,2.8,2.8,0,0,0-2.8-2.8A33.012,33.012,0,0,1,89.1,53.25a13.328,13.328,0,0,0-15.876,2.1l-9.268,9.268a5.04,5.04,0,1,1-7-7.112l14-14a19.208,19.208,0,0,1,15.932-5.4,24.584,24.584,0,0,0,19.068-5.8l25.732,25.648-1.4,1.372a25.62,25.62,0,0,0-7,13.272ZM147.732,53l-4.648,4.508a2.8,2.8,0,0,1-4.06,0L106.488,24.942a2.8,2.8,0,0,1,0-4.06l4.564-4.564a2.8,2.8,0,0,1,4.06,0l32.536,32.788a2.8,2.8,0,0,1,0,3.948Z" transform="translate(5.512 18.094)"/></svg>