<svg xmlns="http://www.w3.org/2000/svg" viewBox="0 0 148 148"><defs><style>.a{fill:none;}.b{fill:#edf4ff;}.c{fill:#d8e3f0;}.d{fill:#fcfeff;}.e{fill:#96ddff;}.f{fill:#69baf9;}.g{fill:#fff;}.h{fill:#e5ebf1;}.i{fill:#1e8af2;}.j{fill:#0074e4;}.k{fill:#3d3d63;}</style></defs><rect class="a" width="148" height="148"/><path class="b" d="M106.873,40.167A9.423,9.423,0,0,1,97.45,30.72,9.349,9.349,0,0,1,94.663,37.4,9.225,9.225,0,0,1,88,40.167a9.423,9.423,0,0,1-9.447-9.447A9.423,9.423,0,0,1,75.793,37.4a9.275,9.275,0,0,1-6.66,2.763,9.423,9.423,0,0,1-9.447-9.447A9.423,9.423,0,0,1,56.923,37.4a9.324,9.324,0,0,1-6.685,2.763,9.423,9.423,0,0,1-9.423-9.447A9.423,9.423,0,0,1,38.053,37.4a9.324,9.324,0,0,1-6.685,2.763,9.447,9.447,0,0,1-9.447-9.447,9.447,9.447,0,0,1-9.1,9.447A8.461,8.461,0,0,1,9.76,39.7V84.937h99.8V39.748a9.719,9.719,0,0,1-2.689.419Z" transform="translate(14.315 45.056)"/><path class="c" d="M59.656,50.335A481.978,481.978,0,0,1,9.78,47.869V59.931h99.752V47.77a481.988,481.988,0,0,1-49.876,2.565Z" transform="translate(14.344 70.063)"/><rect class="d" width="8.683" height="11.717" transform="translate(47.878 34.731)"/><rect class="d" width="8.683" height="11.717" transform="translate(100.147 46.447) rotate(180)"/><rect class="e" width="30.291" height="18.821" transform="translate(40.503 94.991)"/><path class="f" d="M30.753,38.51,24.808,57.331H18L23.945,38.51Z" transform="translate(26.4 56.481)"/><path class="f" d="M36.913,38.51,35.9,57.331H24.16L30.1,38.51Z" transform="translate(35.435 56.481)"/><rect class="e" width="20.917" height="35.002" transform="translate(86.58 94.991)"/><path class="f" d="M35.1,50.341v7.4H56.017V49.33C49.135,49.8,42.253,50.169,35.1,50.341Z" transform="translate(51.48 72.351)"/><rect class="g" width="68.795" height="16.724" transform="translate(39.615 18.007)"/><path class="h" d="M65.72,7.3V24.024H29.09L33.579,7.3Z" transform="translate(42.665 10.707)"/><path class="c" d="M64.227,30.72a9.447,9.447,0,1,1-18.87,0Z" transform="translate(66.506 45.056)"/><path class="d" d="M67.392,48.159H48.522L43.12,18.83H59.3Z" transform="translate(63.243 27.617)"/><path class="i" d="M56.545,30.72a9.447,9.447,0,0,1-18.895,0Z" transform="translate(55.22 45.056)"/><path class="j" d="M58.143,48.159H39.249L36.56,18.83H52.741Z" transform="translate(53.621 27.617)"/><path class="c" d="M48.877,30.72a9.447,9.447,0,1,1-18.87,0Z" transform="translate(43.993 45.056)"/><path class="d" d="M48.87,48.159H30V18.83H46.181Z" transform="translate(44 27.617)"/><path class="i" d="M41.227,30.72a9.447,9.447,0,1,1-18.87,0Z" transform="translate(32.773 45.056)"/><path class="j" d="M41.22,18.83V48.159H22.35L25.039,18.83Z" transform="translate(32.78 27.617)"/><path class="c" d="M33.585,30.72a9.447,9.447,0,0,1-18.895,0Z" transform="translate(21.545 45.056)"/><path class="d" d="M36.273,18.83,33.585,48.159H14.69l5.4-29.329Z" transform="translate(21.545 27.617)"/><path class="i" d="M25.969,30.72a9.447,9.447,0,0,1-9.1,9.447A9.867,9.867,0,0,1,7,30.72Z" transform="translate(10.267 45.056)"/><path class="j" d="M31.3,18.83,25.9,48.159H7.055a2.688,2.688,0,0,1,0-.444L15.146,18.83Z" transform="translate(10.335 27.617)"/><path class="k" d="M51.832,56.429V39.977a2.467,2.467,0,0,0-2.467-2.467H19.075a2.467,2.467,0,0,0-2.467,2.467V56.429a2.491,2.491,0,0,0,.469,4.933H51.388a2.489,2.489,0,0,0,.444-4.933Zm-20.079,0H21.542V42.443H31.754Zm15.145,0H36.687V42.443H46.9Z" transform="translate(21.428 55.015)"/><path class="k" d="M40.324,49.748a3.034,3.034,0,1,0-3.034-3.034A3.034,3.034,0,0,0,40.324,49.748Z" transform="translate(54.692 64.064)"/><path class="k" d="M125.867,118.287h-6.857V77.241a11.766,11.766,0,0,0,6.857-10.705,2.688,2.688,0,0,0,0-.641l-8.091-29.353a2.467,2.467,0,0,0-2.467-1.8H95.255V27.957h5.8a2.467,2.467,0,0,0,2.467-2.467V8.767A2.467,2.467,0,0,0,101.052,6.3H32.281a2.467,2.467,0,0,0-2.467,2.467V25.491a2.467,2.467,0,0,0,2.467,2.467h5.8v6.783H18.123a2.467,2.467,0,0,0-2.467,1.8L7.664,65.451a2.689,2.689,0,0,0,0,.641,12.58,12.58,0,0,0,3.873,9.053,11.42,11.42,0,0,0,2.787,1.949v41.193H7.467a2.467,2.467,0,0,0,0,4.933h118.4a2.467,2.467,0,1,0,0-4.933ZM86.573,34.247v-5.8h3.749v5.8Zm-51.8-23.014H98.585V23.024H34.748ZM46.785,28.5v5.8H43.011V28.451Zm4.933-.493H81.639V34.79H51.694ZM97.7,118.287H81.713V88.218H97.7Zm16.379,0H102.631V85.751a2.467,2.467,0,0,0-2.467-2.467H79.247a2.467,2.467,0,0,0-2.467,2.467v32.535H19.257V78.4h.691a11.717,11.717,0,0,0,7.918-3.478A9.374,9.374,0,0,0,28.9,73.739,11.914,11.914,0,0,0,38.349,78.4a11.692,11.692,0,0,0,8.411-3.478A15.143,15.143,0,0,0,47.8,73.763,11.914,11.914,0,0,0,57.219,78.4a11.717,11.717,0,0,0,8.411-3.478,11.866,11.866,0,0,0,1.036-1.184A11.914,11.914,0,0,0,76.114,78.4,11.717,11.717,0,0,0,84.5,74.923a11.864,11.864,0,0,0,1.036-1.184A11.914,11.914,0,0,0,94.984,78.4a11.717,11.717,0,0,0,8.411-3.478,15.142,15.142,0,0,0,1.036-1.159,11.865,11.865,0,0,0,9.423,4.637h.222Zm-.222-44.77a6.981,6.981,0,0,1-6.956-6.981,2.467,2.467,0,0,0-4.933,0,6.956,6.956,0,0,1-2.072,4.933,6.808,6.808,0,0,1-4.933,2.023,6.981,6.981,0,0,1-6.981-6.981,2.467,2.467,0,1,0-4.933,0,6.956,6.956,0,1,1-13.912.025,2.467,2.467,0,0,0-4.933,0,6.981,6.981,0,1,1-13.937,0,2.467,2.467,0,0,0-4.933,0,6.981,6.981,0,1,1-13.961,0,2.467,2.467,0,0,0-4.933,0A6.956,6.956,0,0,1,19.8,73.517a6.808,6.808,0,0,1-4.933-1.924,7.6,7.6,0,0,1-2.343-5.18l7.4-26.739H31.27L28.335,55.683a2.467,2.467,0,0,0,1.973,2.861h.444a2.467,2.467,0,0,0,2.467-2.023l3.108-16.9H47.772l-1.5,16.206a2.467,2.467,0,0,0,2.245,2.689h.222A2.467,2.467,0,0,0,51.2,56.275L52.73,39.6H64.2V56.127a2.467,2.467,0,0,0,4.933,0V39.674H80.579l1.529,16.675a2.467,2.467,0,0,0,2.467,2.245H84.8A2.467,2.467,0,0,0,87.041,55.9L85.537,39.7H96.982l3.108,16.9a2.467,2.467,0,0,0,2.467,2.023H103a2.467,2.467,0,0,0,1.973-2.861l-2.935-16.009h11.347l7.4,27.133a6.931,6.931,0,0,1-2.047,4.637,6.808,6.808,0,0,1-4.884,2Z" transform="translate(7.333 9.24)"/></svg>