<svg xmlns="http://www.w3.org/2000/svg" viewBox="0 0 155.027 155.027"><defs><style>.a{fill:none;}.b{fill:#e5ebf1;}.c{fill:#cdd2d8;}.d{fill:#0074e4;}.e{fill:#3d3d63;}</style></defs><rect class="a" width="155.027" height="155.027"/><path class="b" d="M65.5,11.236,35.863,8.368a2.58,2.58,0,0,0-2.842,2.661l1.447,38.6a2.584,2.584,0,0,0,1.654,2.325l18.629,7.157a2.92,2.92,0,0,0,.93.155,2.429,2.429,0,0,0,.956-.181l10.981-4.315a2.584,2.584,0,0,0,1.628-2.145l3.2-32.969a7.751,7.751,0,0,0-6.95-8.423Z" transform="translate(52.296 13.232)"/><rect class="c" width="47.051" height="13.772" transform="translate(85.316 120.599) rotate(-45)"/><path class="d" d="M0,0H13.772V4.47A5.969,5.969,0,0,1,7.8,10.439H5.969A5.969,5.969,0,0,1,0,4.47Z" transform="translate(128.328 97.046) rotate(-135)"/><path class="b" d="M45.754,56.421,31.13,61.278l4.858-14.6h.026Z" transform="translate(49.303 73.931)"/><path class="b" d="M87.451,29.046h-15.5a.853.853,0,0,1-.853-.853V12.69A6.02,6.02,0,0,0,65.05,6.67H18.541a7.751,7.751,0,0,0-7.751,7.751V119.478a7.751,7.751,0,0,0,7.751,7.751H43.914a2.584,2.584,0,0,0,2.429-1.757l4.392-13.1L92.722,70.36a2.584,2.584,0,0,0,.749-1.834V35.092a6.02,6.02,0,0,0-6.02-6.046Z" transform="translate(17.089 10.564)"/><path class="c" d="M38.981,14.14H11.8V53.749H38.981A6.02,6.02,0,0,0,45,47.729V20.16A6.02,6.02,0,0,0,38.981,14.14Z" transform="translate(18.689 22.395)"/><path class="d" d="M54.883,30.229a3.333,3.333,0,0,0-2.2-.8h-15.5a3.436,3.436,0,0,1-3.436-3.436v-15.5A3.411,3.411,0,0,0,32.74,8.06Z" transform="translate(51.853 12.765)"/><rect class="d" width="13.772" height="13.772" rx="0.53" transform="translate(42.529 82.552)"/><rect class="d" width="34.442" height="34.442" rx="1.33" transform="translate(21.859 34.313)"/><path class="e" d="M49.125,122H23.752a2.584,2.584,0,0,1-2.584-2.584v-58.7H40.986a6.02,6.02,0,0,0,6.02-6.02V27.122a6.02,6.02,0,0,0-6.02-6.02H21.168V14.358a2.584,2.584,0,0,1,2.584-2.584H70.26a.878.878,0,0,1,.878.853v15.5a6.02,6.02,0,0,0,6.02,6.02h15.5a.853.853,0,0,1,.853.878V68.618a2.584,2.584,0,1,0,5.168,0V35.028a5.994,5.994,0,0,0-2.041-4.315h0l-13.72-13.72,22.453,2.17a2.584,2.584,0,0,1,2.3,2.842l-3.152,32.762a2.584,2.584,0,1,0,5.142.517l3.2-32.969a7.751,7.751,0,0,0-6.95-8.475l-28.706-2.79L74.627,8.467h0A5.994,5.994,0,0,0,70.364,6.71H23.855A7.751,7.751,0,0,0,16.1,14.461v6.744H13.52a6.046,6.046,0,0,0-6.02,6.02V54.691a6.02,6.02,0,0,0,6.02,6.02H16.1v58.7a7.751,7.751,0,0,0,7.751,7.751H49.228a2.584,2.584,0,0,0,0-5.168ZM76.306,17.433,87.83,28.982H77.159a.853.853,0,0,1-.853-.853ZM12.564,54.691V27.122a.853.853,0,0,1,.853-.853H40.986a.853.853,0,0,1,.853.853V54.691a.853.853,0,0,1-.853.853H13.417A.853.853,0,0,1,12.564,54.691Z" transform="translate(11.878 10.627)"/><path class="e" d="M19.439,31a3.953,3.953,0,0,0-3.979,3.953V45.986a3.979,3.979,0,0,0,3.979,3.824H30.446A3.953,3.953,0,0,0,34.4,45.857V34.824A3.927,3.927,0,0,0,30.446,31Zm9.793,13.772h-8.6v-8.6h8.6Z" transform="translate(24.485 49.097)"/><path class="e" d="M51.3,38.224a2.584,2.584,0,0,0-2.584-2.584H28.044a2.584,2.584,0,1,0,0,5.168h20.67A2.584,2.584,0,0,0,51.3,38.224Z" transform="translate(40.323 56.446)"/><path class="e" d="M28.044,31.59a2.584,2.584,0,0,0,0,5.168h8.6a2.584,2.584,0,1,0,0-5.168Z" transform="translate(40.323 50.032)"/><path class="e" d="M47.861,24.864a2.584,2.584,0,0,0-2.584-2.584H28.044a2.584,2.584,0,1,0,0,5.168H45.278a2.584,2.584,0,0,0,2.584-2.584Z" transform="translate(40.323 35.287)"/><path class="e" d="M28.044,23.388h8.6a2.584,2.584,0,1,0,0-5.168h-8.6a2.584,2.584,0,1,0,0,5.168Z" transform="translate(40.323 28.857)"/><path class="b" d="M25.815,17.842l-7.751,7.751-2.222-2.222A2.585,2.585,0,1,0,12.2,27.041l4.031,4.031a2.558,2.558,0,0,0,3.669,0l9.508-9.483a2.595,2.595,0,0,0-3.591-3.746Z" transform="translate(18.109 27.116)"/><path class="e" d="M85.525,34.742l-1.318-1.318a8.552,8.552,0,0,0-12.092,0L35.761,69.882a2.273,2.273,0,0,0-.62,1.008l-4.883,14.5a2.584,2.584,0,0,0,3.256,3.256l14.624-4.806a2.584,2.584,0,0,0,1.008-.646l36.38-36.354a8.552,8.552,0,0,0,0-12.092ZM36.794,82.155l1.912-5.736,3.824,3.8Zm10.542-4.522-6.1-6.072L64.493,48.307l6.1,6.072ZM74.259,50.788l-6.1-6.072,2.584-2.584,6.072,6.1Zm7.6-7.751L80.616,44.3l-6.1-5.943,1.266-1.266a3.385,3.385,0,0,1,4.78,0l1.292,1.292a3.385,3.385,0,0,1,0,4.78Z" transform="translate(47.721 48.972)"/></svg>