<svg xmlns="http://www.w3.org/2000/svg" viewBox="0 0 170 170"><defs><style>.a{fill:none;}.b{fill:#fff;}.c{fill:#f1f1f1;}.d{fill:#e2e2e2;}.e{fill:#f2efef;}.f{fill:#ecebeb;}.g{fill:#0074e4;}.h{fill:#3d3d63;}</style></defs><rect class="a" width="170" height="170"/><line class="b" x2="94.435" transform="translate(35.898 143.452)"/><path class="c" d="M62.13,41.6H25.863L21.33,57.75H66.663Z" transform="translate(39.105 76.267)"/><path class="b" d="M129.438,12.93h-85v68H6.67v9.435a3.768,3.768,0,0,0,3.768,3.8h94.435V69.172a3.8,3.8,0,0,1,3.8-3.8h26.435V18.6A5.667,5.667,0,0,0,129.438,12.93ZM112.92,44.578a9.463,9.463,0,1,1,9.435-9.463,9.463,9.463,0,0,1-9.435,9.463Z" transform="translate(12.228 23.705)"/><path class="d" d="M30.16,80.178H61.808V68.42a3.8,3.8,0,0,1,3.8-3.8H92.04V17.845a5.667,5.667,0,0,0-2.267-4.5H48.067Zm39.667-55.25a9.539,9.539,0,1,0,.028,0Z" transform="translate(55.293 24.457)"/><path class="b" d="M12.337,12.93h32.1v68H6.67V18.6A5.667,5.667,0,0,1,12.337,12.93Z" transform="translate(12.228 23.705)"/><path class="b" d="M104.873,36.93H6.67v9.435a3.768,3.768,0,0,0,3.768,3.8h94.435Z" transform="translate(12.228 67.705)"/><path class="d" d="M58.93,37.01H35.158L31.73,49.788v.227h27.2Z" transform="translate(58.172 67.852)"/><path class="b" d="M91.565,56.735H16A9.435,9.435,0,0,1,25.435,47.3H82.1a9.463,9.463,0,0,1,9.463,9.435Z" transform="translate(29.333 86.717)"/><rect class="b" width="37.768" height="60.435" rx="1.33" transform="translate(117.102 89.08)"/><path class="e" d="M45.73,79.68,58.593,31.74H69.7V79.68Z" transform="translate(83.838 58.19)"/><path class="b" d="M41.33,49h37.8v6.8a3.768,3.768,0,0,1-3.768,3.768H45.127A3.768,3.768,0,0,1,41.358,55.8V49Z" transform="translate(75.772 89.833)"/><path class="f" d="M47,59.71H64.85a3.8,3.8,0,0,0,3.8-3.8V49H49.833Z" transform="translate(86.167 89.833)"/><circle class="g" cx="9.435" cy="9.435" r="9.435" transform="translate(115.713 49.385)"/><path class="h" d="M140.707,64.375h-.935V20.43a8.5,8.5,0,0,0-8.5-8.5H14.17a8.5,8.5,0,0,0-8.5,8.5V92.2a6.6,6.6,0,0,0,6.6,6.63H50.833L48,109.312H44.373a12.24,12.24,0,0,0-11.9,9.435H25.5a2.833,2.833,0,0,0,0,5.667H103.93A6.6,6.6,0,0,0,110.5,130.5h30.2a6.63,6.63,0,0,0,6.63-6.63V71a6.63,6.63,0,0,0-6.63-6.63ZM49.105,17.6h82.167a2.833,2.833,0,0,1,2.833,2.833V64.375H110.5a6.63,6.63,0,0,0-6.63,6.63V79.93H49.105Zm54.768,92.055a13.147,13.147,0,0,0-2.833-.34H97.527L94.693,98.828h9.293ZM11.337,20.43A2.833,2.833,0,0,1,14.17,17.6H43.438V79.93h-32.1Zm.935,72.732a.963.963,0,0,1-.935-.963V85.6h92.537v7.565Zm79.333,16.15H53.78l2.833-10.483H88.772Zm-47.26,5.667h56.667a6.4,6.4,0,0,1,2.833.652v3.117H38.423a6.6,6.6,0,0,1,5.95-3.768Zm97.3,8.9a.963.963,0,0,1-.963.963H110.5a.963.963,0,0,1-.963-.963v-4.08h32.13Zm0-9.633h-32.1V71a.963.963,0,0,1,.963-.963h30.2a.963.963,0,0,1,.963.963Z" transform="translate(10.395 21.872)"/><path class="h" d="M59.167,33.78H47.833a2.833,2.833,0,0,0,0,5.667H59.167a2.833,2.833,0,1,0,0-5.667Z" transform="translate(82.5 61.93)"/><path class="h" d="M23.4,17.1H15.833a2.833,2.833,0,1,0,0,5.667H23.4a2.833,2.833,0,0,0,0-5.667Z" transform="translate(23.833 31.35)"/><circle class="h" cx="2.833" cy="2.833" r="2.833" transform="translate(26.435 48.45)"/><path class="h" d="M23.4,22.43H15.833a2.833,2.833,0,1,0,0,5.667H23.4a2.833,2.833,0,1,0,0-5.667Z" transform="translate(23.833 41.122)"/><path class="h" d="M23.4,25.76H15.833a2.833,2.833,0,0,0,0,5.667H23.4a2.833,2.833,0,0,0,0-5.667Z" transform="translate(23.833 47.227)"/><circle class="h" cx="2.833" cy="2.833" r="2.833" transform="translate(26.435 63.552)"/><path class="h" d="M52.127,41.013a12.3,12.3,0,1,0-12.3-12.3A12.3,12.3,0,0,0,52.127,41.013Zm0-18.9a6.63,6.63,0,1,1-6.63,6.6A6.63,6.63,0,0,1,52.127,22.115Z" transform="translate(73.022 30.103)"/><path class="h" d="M26.663,26.167h17a2.833,2.833,0,1,0,0-5.667h-17a2.833,2.833,0,0,0,0,5.667Z" transform="translate(43.688 37.583)"/><path class="h" d="M51.852,23.83H26.663a2.833,2.833,0,0,0,0,5.667H51.852a2.833,2.833,0,1,0,0-5.667Z" transform="translate(43.688 43.688)"/><path class="h" d="M60.352,17.1H26.663a2.833,2.833,0,0,0,0,5.667H60.352a2.833,2.833,0,1,0,0-5.667Z" transform="translate(43.688 31.35)"/><path class="h" d="M42.247,31.76H26.663a2.833,2.833,0,1,0,0,5.667H42.247a2.833,2.833,0,1,0,0-5.667Z" transform="translate(43.688 58.227)"/><path class="h" d="M26.663,34.1h6.63a2.833,2.833,0,0,0,0-5.667h-6.63a2.833,2.833,0,0,0,0,5.667Z" transform="translate(43.688 52.122)"/></svg>