<svg xmlns="http://www.w3.org/2000/svg" viewBox="0 0 178.611 178.611"><defs><style>.a{fill:none;}.b{fill:#e5ebf1;}.c{fill:#0074e4;}.d{fill:#f6716f;}.e{fill:#bcd3eb;}.f{fill:#edf4ff;}.g{fill:#f0504d;}.h{fill:#d2d2d2;}.i{fill:#3d3d63;}</style></defs><rect class="a" width="178.611" height="178.611"/><circle class="b" cx="13.307" cy="13.307" r="13.307" transform="translate(100.35 71.802)"/><path class="c" d="M50.3,33.06h6.668A19.945,19.945,0,0,1,76.918,53H30.36A19.945,19.945,0,0,1,50.3,33.06Z" transform="translate(60.017 65.355)"/><circle class="b" cx="13.307" cy="13.307" r="13.307" transform="translate(51.648 71.802)"/><path class="c" d="M33.945,33.06h6.638A19.945,19.945,0,0,1,60.528,53H14A19.945,19.945,0,0,1,33.945,33.06Z" transform="translate(27.676 65.355)"/><path class="d" d="M119.167,43.64V55.9H12V44a445.694,445.694,0,0,0,52.512,2.977,441.29,441.29,0,0,0,54.655-3.334Z" transform="translate(23.722 86.27)"/><path class="b" d="M155.537,42.43H113.861v5.537c-11.223.863-22.832,1.369-34.8,1.369-11.193,0-22.088-.447-32.745-1.191V42.43H4.64L18.512,56.3,4.729,70.2H46.405V58.3h67.456V70.2h41.676L141.665,56.3Z" transform="translate(9.173 83.878)"/><path class="d" d="M119.167,38.43V53.939a441.293,441.293,0,0,1-54.655,3.3A445.689,445.689,0,0,1,12,54.267V38.49Z" transform="translate(23.722 75.971)"/><circle class="b" cx="17.712" cy="17.712" r="17.712" transform="translate(71.593 57.543)"/><path class="e" d="M41.762,35.951A19.082,19.082,0,0,1,24.229,24.49a15.36,15.36,0,0,0-.179,2.352,17.712,17.712,0,0,0,35.425,0A15.362,15.362,0,0,0,59.3,24.49,19.082,19.082,0,0,1,41.762,35.951Z" transform="translate(47.543 48.413)"/><path class="c" d="M45.541,31.23H54A25.393,25.393,0,0,1,79.537,56.623H20A25.393,25.393,0,0,1,45.541,31.23Z" transform="translate(39.537 61.737)"/><path class="f" d="M40.438,52.663,55.858,33.85a25.273,25.273,0,0,0-11.193-2.62H36.211A25.274,25.274,0,0,0,24.72,34Z" transform="translate(48.868 61.737)"/><path class="g" d="M31.617,7.24a2.977,2.977,0,0,0-2.977,2.977v5.954a2.977,2.977,0,1,0,5.954,0V10.217A2.977,2.977,0,0,0,31.617,7.24Z" transform="translate(56.617 14.312)"/><path class="g" d="M21.6,9.942a2.977,2.977,0,0,0-1.1,3.989l2.977,5.15a2.977,2.977,0,1,0,5.15-2.977l-2.947-5.15A2.977,2.977,0,0,0,21.6,9.942Z" transform="translate(39.81 18.815)"/><path class="g" d="M14.258,17.258a2.977,2.977,0,0,0,1.1,4.049l5.15,2.977a2.974,2.974,0,1,0,2.977-5.15l-5.15-2.977a2.977,2.977,0,0,0-4.078,1.1Z" transform="translate(27.418 31.146)"/><path class="g" d="M43.693,9.959a2.977,2.977,0,0,1,1.012,3.989L41.729,19.1a2.977,2.977,0,1,1-5.15-2.977l2.977-5.15a2.977,2.977,0,0,1,4.138-1.012Z" transform="translate(71.392 18.797)"/><path class="g" d="M52.459,17.258a2.977,2.977,0,0,1-1.1,4.049l-5.15,2.977a2.977,2.977,0,1,1-2.977-5.15l5.15-2.977a2.977,2.977,0,0,1,4.078,1.1Z" transform="translate(82.303 31.146)"/><path class="h" d="M119.167,38.43V53.939a441.293,441.293,0,0,1-54.655,3.3A445.689,445.689,0,0,1,12,54.267V38.49Z" transform="translate(23.722 75.971)"/><path class="i" d="M147.712,103.939l11.907-11.907a2.977,2.977,0,0,0-2.114-5.061H138.543V78.04a2.977,2.977,0,0,0-2.977-2.977h-4.078A23.071,23.071,0,0,0,117.705,60.6a16.254,16.254,0,0,0-15.718-27.387,20.689,20.689,0,0,0-39.711,0A16.313,16.313,0,0,0,41.438,48.867,16.075,16.075,0,0,0,46.5,60.6,23.071,23.071,0,0,0,32.567,75.182H28.4a2.977,2.977,0,0,0-2.977,2.977V87.09H6.579A2.977,2.977,0,0,0,4.585,92.15l11.907,11.907L4.585,115.965a2.977,2.977,0,0,0,2.114,5.09H48.374a2.977,2.977,0,0,0,2.977-2.977v-8.931h61.383v8.931a2.977,2.977,0,0,0,2.977,2.977h41.676a2.977,2.977,0,0,0,1.994-5.329ZM125.088,75.182h-11.4a28.429,28.429,0,0,0-4.7-10.062h.655a16.938,16.938,0,0,1,15.45,10.062Zm-22.267-35.96a10.121,10.121,0,0,1,3.662-.685,10.33,10.33,0,1,1-9.615,14.706,20.838,20.838,0,0,0,5.954-14.021ZM98.3,63.037a22.207,22.207,0,0,1,9.377,12.086H88.264ZM81.983,73.486l-10.806-12.8a23.19,23.19,0,0,1,6.609-.982H86.24a22,22,0,0,1,6.311.893Zm0-49.207A14.884,14.884,0,1,1,67.248,39.162,14.884,14.884,0,0,1,81.983,24.278Zm-6.4,50.9H56.442a22.178,22.178,0,0,1,9.109-11.907ZM57.722,38.537a10.124,10.124,0,0,1,3.664.685A20.838,20.838,0,0,0,67.1,53.243a10.33,10.33,0,1,1-9.377-14.706Zm-3.3,26.613h.655a28.042,28.042,0,0,0-4.7,10.032H38.878A16.938,16.938,0,0,1,54.328,65.15ZM13.754,114.864l8.931-8.931a2.977,2.977,0,0,0,0-4.2l-8.931-8.931H25.423V105.7a2.977,2.977,0,0,0,1.459,2.5l10.627,6.43ZM45.278,112.6l-6.132-3.662h6.132Zm-13.9-9.645V81.136H132.59v21.82Zm87.311,9.645V108.91h6.132Zm7.77,2.292,10.627-6.43a2.977,2.977,0,0,0,1.459-2.5V93.043h11.669l-8.931,8.931a2.977,2.977,0,0,0,0,4.2l8.931,8.931Z" transform="translate(7.323 36.241)"/><path class="i" d="M78.195,42.09H22.647a2.977,2.977,0,0,0,0,5.954H78.195a2.977,2.977,0,0,0,0-5.954Z" transform="translate(38.885 83.206)"/><path class="b" d="M31.617,19.147a2.977,2.977,0,0,0,2.977-2.977V10.217a2.977,2.977,0,0,0-5.954,0v5.954A2.977,2.977,0,0,0,31.617,19.147Z" transform="translate(56.617 14.312)"/><path class="b" d="M23.443,19.1a2.977,2.977,0,1,0,5.15-2.977l-2.947-5.209a2.977,2.977,0,0,0-5.15,2.977Z" transform="translate(39.845 18.852)"/><path class="b" d="M15.38,21.306l5.15,2.977a2.974,2.974,0,1,0,2.977-5.15l-5.15-2.977a2.974,2.974,0,1,0-2.977,5.15Z" transform="translate(27.457 31.146)"/><path class="b" d="M37.705,20.2a2.977,2.977,0,0,0,3.989-1.1l2.977-5.209a2.977,2.977,0,0,0-5.15-2.977l-2.977,5.15A2.977,2.977,0,0,0,37.705,20.2Z" transform="translate(71.426 18.852)"/><path class="b" d="M46.207,24.283l5.15-2.977a2.974,2.974,0,1,0-2.977-5.15l-5.15,2.977a2.977,2.977,0,1,0,2.977,5.15Z" transform="translate(82.303 31.146)"/></svg>