<svg xmlns="http://www.w3.org/2000/svg" viewBox="0 0 124.864 125.133"><defs><style>.a{fill:#d2d2d2;}.b{fill:#e5ebf1;}.c{fill:#bed6ee;}.d{fill:#c6e1fc;}.e{fill:#e8eef2;}.f{fill:#dbdbdb;}.g{fill:#0074e4;}.h{fill:#53a3f1;}.i{fill:#3188dc;}.j{fill:#3d3d63;}</style></defs><g transform="translate(-0.549 0)"><path class="a" d="M179.186,29.229v73.84c0,.147,0,.295-.01.442a9.533,9.533,0,0,1-9.524,9.089h-53.6a9.533,9.533,0,0,1-9.534-9.531V17.578a9.519,9.519,0,0,1,9.534-9.534h42.573a9.5,9.5,0,0,1,4.14.949c2.575,1.24,3.3,2.806,7.929,7.539,5.325,5.782,6.6,6.374,7.681,8.878A9.428,9.428,0,0,1,179.186,29.229Z" transform="translate(-80.074 -6.078)"/><path class="b" d="M201.977,29.229v73.84c0,.147,0,.295-.01.442a9.563,9.563,0,0,1-2.152.243h-53.6a9.533,9.533,0,0,1-9.534-9.531V8.731c0-.15,0-.3.01-.445a9.577,9.577,0,0,1,2.152-.243H181.42a9.548,9.548,0,0,1,6.966,3.027l5.1,5.46,5.843,6.113a9.594,9.594,0,0,1,2.644,6.585Z" transform="translate(-102.864 -6.077)"/><path class="c" d="M312.368,188.369v53.6A13.473,13.473,0,0,1,298.9,255.442H263.887a13.473,13.473,0,0,1-13.473-13.473v-53.6A13.467,13.467,0,0,1,263.887,174.9H298.9A13.471,13.471,0,0,1,312.368,188.369Z" transform="translate(-188.798 -132.151)"/><path class="d" d="M329.59,188.369v53.6a13.4,13.4,0,0,1-2.609,7.968,13.416,13.416,0,0,1-5.293,1.081H286.679a13.473,13.473,0,0,1-13.473-13.473v-53.6a13.4,13.4,0,0,1,2.609-7.968,13.416,13.416,0,0,1,5.293-1.081h35.01A13.471,13.471,0,0,1,329.59,188.369Z" transform="translate(-206.019 -132.151)"/><path class="b" d="M366.364,367.984v6.3a2.014,2.014,0,0,1-2.012,2.015h-6.3a2.015,2.015,0,0,1-2.015-2.015v-6.3a2.015,2.015,0,0,1,2.015-2.015h6.3A2.014,2.014,0,0,1,366.364,367.984Z" transform="translate(-268.608 -276.526)"/><path class="e" d="M331.734,211.422v6.745a4.344,4.344,0,0,1-4.344,4.344H292.641a4.346,4.346,0,0,1-4.344-4.344v-6.745a4.346,4.346,0,0,1,4.344-4.344H327.39A4.344,4.344,0,0,1,331.734,211.422Z" transform="translate(-217.422 -156.468)"/><path class="f" d="M354.524,211.422v6.745a4.344,4.344,0,0,1-4.344,4.344H322.8a4.346,4.346,0,0,1-4.344-4.344v-6.745a4.346,4.346,0,0,1,4.344-4.344H350.18A4.344,4.344,0,0,1,354.524,211.422Z" transform="translate(-240.212 -156.468)"/><g transform="translate(70.875 72.98)"><path class="b" d="M298.624,367.984v6.3a2.015,2.015,0,0,1-2.015,2.015h-6.3a2.016,2.016,0,0,1-2.015-2.015v-6.3a2.016,2.016,0,0,1,2.015-2.015h6.3A2.014,2.014,0,0,1,298.624,367.984Z" transform="translate(-288.297 -349.506)"/><path class="b" d="M366.364,300.623v6.3a2.014,2.014,0,0,1-2.012,2.015h-6.3a2.015,2.015,0,0,1-2.015-2.015v-6.3a2.015,2.015,0,0,1,2.015-2.015h6.3A2.014,2.014,0,0,1,366.364,300.623Z" transform="translate(-339.483 -298.608)"/></g><path class="b" d="M434.921,300.623v6.3a2.015,2.015,0,0,1-2.015,2.015h-6.3a2.015,2.015,0,0,1-2.015-2.015v-6.3a2.015,2.015,0,0,1,2.015-2.015h6.3A2.015,2.015,0,0,1,434.921,300.623Z" transform="translate(-320.41 -225.628)"/><g transform="translate(70.875 72.98)"><path class="b" d="M298.624,300.623v6.3a2.015,2.015,0,0,1-2.015,2.015h-6.3a2.016,2.016,0,0,1-2.015-2.015v-6.3a2.016,2.016,0,0,1,2.015-2.015h6.3A2.015,2.015,0,0,1,298.624,300.623Z" transform="translate(-288.297 -298.608)"/><path class="b" d="M366.364,432.043v6.3a2.014,2.014,0,0,1-2.012,2.015h-6.3a2.015,2.015,0,0,1-2.015-2.015v-6.3a2.014,2.014,0,0,1,2.015-2.012h6.3A2.013,2.013,0,0,1,366.364,432.043Z" transform="translate(-339.483 -397.911)"/><path class="b" d="M298.624,432.043v6.3a2.015,2.015,0,0,1-2.015,2.015h-6.3a2.016,2.016,0,0,1-2.015-2.015v-6.3a2.016,2.016,0,0,1,2.015-2.012h6.3A2.014,2.014,0,0,1,298.624,432.043Z" transform="translate(-288.297 -397.911)"/></g><path class="a" d="M434.921,368.961v19.552a3.436,3.436,0,0,1-3.435,3.437h-3.455a3.436,3.436,0,0,1-3.435-3.437V368.961a2.993,2.993,0,0,1,2.993-2.993h4.339A2.992,2.992,0,0,1,434.921,368.961Z" transform="translate(-320.41 -276.525)"/><g transform="translate(70.875 72.98)"><path class="a" d="M366.364,367.984v1.872a2.014,2.014,0,0,1-2.012,2.015h-6.3a2.015,2.015,0,0,1-2.015-2.015v-1.872a2.015,2.015,0,0,1,2.015-2.015h6.3A2.014,2.014,0,0,1,366.364,367.984Z" transform="translate(-339.483 -349.506)"/><path class="a" d="M298.624,367.984v1.872a2.015,2.015,0,0,1-2.015,2.015h-6.3a2.016,2.016,0,0,1-2.015-2.015v-1.872a2.016,2.016,0,0,1,2.015-2.015h6.3A2.014,2.014,0,0,1,298.624,367.984Z" transform="translate(-288.297 -349.506)"/><path class="a" d="M366.364,300.623V302.5a2.014,2.014,0,0,1-2.012,2.015h-6.3a2.015,2.015,0,0,1-2.015-2.015v-1.872a2.015,2.015,0,0,1,2.015-2.015h6.3A2.014,2.014,0,0,1,366.364,300.623Z" transform="translate(-339.483 -298.608)"/></g><path class="a" d="M434.921,300.623V302.5a2.015,2.015,0,0,1-2.015,2.015h-6.3A2.015,2.015,0,0,1,424.6,302.5v-1.872a2.015,2.015,0,0,1,2.015-2.015h6.3A2.015,2.015,0,0,1,434.921,300.623Z" transform="translate(-320.41 -225.628)"/><g transform="translate(70.875 72.98)"><path class="a" d="M298.624,300.623V302.5a2.015,2.015,0,0,1-2.015,2.015h-6.3A2.016,2.016,0,0,1,288.3,302.5v-1.872a2.016,2.016,0,0,1,2.015-2.015h6.3A2.015,2.015,0,0,1,298.624,300.623Z" transform="translate(-288.297 -298.608)"/><path class="a" d="M366.364,432.043v1.875a2.014,2.014,0,0,1-2.012,2.015h-6.3a2.015,2.015,0,0,1-2.015-2.015v-1.875a2.014,2.014,0,0,1,2.015-2.012h6.3A2.013,2.013,0,0,1,366.364,432.043Z" transform="translate(-339.483 -397.911)"/><path class="a" d="M298.624,432.043v1.875a2.015,2.015,0,0,1-2.015,2.015h-6.3a2.016,2.016,0,0,1-2.015-2.015v-1.875a2.016,2.016,0,0,1,2.015-2.012h6.3A2.014,2.014,0,0,1,298.624,432.043Z" transform="translate(-288.297 -397.911)"/></g><path class="b" d="M434.921,368.961V384.09a3.436,3.436,0,0,1-3.435,3.438h-3.455a3.436,3.436,0,0,1-3.435-3.437V368.961a2.993,2.993,0,0,1,2.993-2.993h4.339A2.992,2.992,0,0,1,434.921,368.961Z" transform="translate(-320.41 -276.525)"/><path class="g" d="M352.273,28.34H340.326a3.665,3.665,0,0,1-3.665-3.665V11.924A9.521,9.521,0,0,1,339.487,14l5.105,5.46,5.842,6.114A9.439,9.439,0,0,1,352.273,28.34Z" transform="translate(-253.966 -9.01)"/><path class="h" d="M107.394,466.32a4.681,4.681,0,0,1-4.669,4.669h-28.6a4.669,4.669,0,0,1,0-9.337h28.6A4.682,4.682,0,0,1,107.394,466.32Z" transform="translate(-52.066 -348.823)"/><path class="h" d="M107.394,428.115a4.681,4.681,0,0,1-4.669,4.669h-28.6a4.669,4.669,0,0,1,0-9.337h28.6A4.682,4.682,0,0,1,107.394,428.115Z" transform="translate(-52.066 -319.956)"/><path class="h" d="M107.394,389.911a4.681,4.681,0,0,1-4.669,4.669h-28.6a4.669,4.669,0,0,1,0-9.337h28.6A4.682,4.682,0,0,1,107.394,389.911Z" transform="translate(-52.066 -291.089)"/><path class="h" d="M107.394,351.7a4.681,4.681,0,0,1-4.669,4.669h-28.6a4.682,4.682,0,0,1-4.669-4.669,4.681,4.681,0,0,1,4.669-4.669h28.6A4.683,4.683,0,0,1,107.394,351.7Z" transform="translate(-52.066 -262.22)"/><path class="h" d="M102.725,318.171h-28.6a4.682,4.682,0,0,1-4.669-4.669h0a4.682,4.682,0,0,1,4.669-4.669h28.6a4.682,4.682,0,0,1,4.669,4.669h0A4.682,4.682,0,0,1,102.725,318.171Z" transform="translate(-52.066 -233.355)"/><path class="i" d="M45,392.179a15.19,15.19,0,0,0-15.831-14.547H23.221c-13.5.585-19.786,17.394-9.451,26.566a15.158,15.158,0,0,0,10.752,3.828h4.651v-.005c.425.017.852.021,1.285,0a15.455,15.455,0,0,0,2.826-.386,15.211,15.211,0,0,0,11.723-14.259v-.017C45.021,392.97,45.021,392.577,45,392.179Z" transform="translate(-6.1 -285.329)"/><path class="h" d="M85.006,394.6v.017a15.211,15.211,0,0,1-11.723,14.259,15.217,15.217,0,0,1-11.708-14.158c0-.034,0-.066,0-.1V394.6A15.216,15.216,0,0,1,73.29,379.255,15.215,15.215,0,0,1,85,393.416C85.021,393.813,85.021,394.207,85.006,394.6Z" transform="translate(-46.1 -286.565)"/><path class="j" d="M110.1,40.9h-9.02V23.151a11.528,11.528,0,0,0-3.187-7.944l-5.828-6.1c-4.946-5.1-5.57-6.536-8.516-7.966A11.526,11.526,0,0,0,78.556,0H35.983a11.513,11.513,0,0,0-11.5,11.5V73.513H22.059a6.63,6.63,0,0,0-4.708,11.3,6.61,6.61,0,0,0-1.926,4.669,6.806,6.806,0,0,0,.13,1.312c-14.4,1.464-20.132,19.284-9.6,28.955a16.611,16.611,0,0,0,11.986,4.391l32.714-.012a6.63,6.63,0,0,0,4.708-11.3,6.6,6.6,0,0,0,1.917-4.339h2.489v1.329a15.332,15.332,0,0,0,15.315,15.315H110.1a15.332,15.332,0,0,0,15.315-15.315v-53.6A15.332,15.332,0,0,0,110.1,40.9ZM84.662,6.951c7.72,8.16,9.46,10,9.787,10.347,0,0,0,0,0,0h0a.053.053,0,0,0,.01.012l0,0a.041.041,0,0,0,.015.015.034.034,0,0,1,.007.01s0,0,0,0,0,0,.007.007.007.007.01.01H84.661V6.951Zm-62.6,70.493h28.6a2.7,2.7,0,1,1,0,5.406h-28.6a2.7,2.7,0,1,1,0-5.406Zm0,9.337h28.6a2.7,2.7,0,1,1,0,5.406H30.9a16.01,16.01,0,0,0-2.489-.9,16.571,16.571,0,0,0-3.931-.578c-.386-.01-.772-.007-1.157.01H19.658a2.657,2.657,0,0,1-.3-1.236A2.708,2.708,0,0,1,22.059,86.782Zm31.3,12.04a2.706,2.706,0,0,1-2.7,2.7h-11a16.536,16.536,0,0,0-3.337-5.406H50.66A2.708,2.708,0,0,1,53.363,98.822ZM12.5,95.293a16.962,16.962,0,0,0-3.1,3.971H7.109A12.982,12.982,0,0,1,12.5,95.293ZM5.018,102.95H7.881a16.97,16.97,0,0,0-.536,2.946H4.32A12.917,12.917,0,0,1,5.018,102.95Zm.317,9.743a12.9,12.9,0,0,1-.924-3.111h3a14.833,14.833,0,0,0,.7,3.111Zm2.452,3.686c1.206,0,1.907,0,2.071,0a16.6,16.6,0,0,0,2.644,3.2A12.986,12.986,0,0,1,7.787,116.378ZM24.56,120.46a13.029,13.029,0,0,1-13.585-12.47C10.48,96.512,24.189,89.9,32.821,97.827,41.33,105.638,36.15,119.983,24.56,120.46Zm26.1-.261H34.794a16.839,16.839,0,0,0,4.224-5.406H50.66a2.7,2.7,0,0,1,0,5.406Zm2.681-11.711a2.7,2.7,0,0,1-2.681,2.374H40.374a16.888,16.888,0,0,0,.238-5.406H50.66A2.705,2.705,0,0,1,53.341,108.488Zm6.433-3.932H56.225a6.522,6.522,0,0,0-.858-1.066,6.62,6.62,0,0,0,0-9.337,6.62,6.62,0,0,0,0-9.337,6.64,6.64,0,0,0-4.708-11.3H28.415V11.5a7.578,7.578,0,0,1,7.568-7.568H80.73v15.4A1.965,1.965,0,0,0,82.7,21.3H96.913c.41,1.592.157,1.066.233,19.606H75.088A15.332,15.332,0,0,0,59.773,56.217v48.34Zm61.955,5.261a11.642,11.642,0,0,1-11.63,11.63H75.089a11.644,11.644,0,0,1-11.63-11.63v-53.6a11.644,11.644,0,0,1,11.63-11.63H110.1a11.642,11.642,0,0,1,11.63,11.63v53.6Z"/><path class="j" d="M293.63,214.971h-6.686a2.509,2.509,0,0,1-2.5-2.5v-6.745a2.509,2.509,0,0,1,2.5-2.5h34.749a2.5,2.5,0,0,1,2.5,2.5v6.745a2.5,2.5,0,0,1-2.5,2.5H301.576a1.843,1.843,0,0,0,0,3.686h20.117a6.194,6.194,0,0,0,6.187-6.187v-6.745a6.194,6.194,0,0,0-6.187-6.187H286.944a6.187,6.187,0,0,0-6.187,6.187v6.745a6.187,6.187,0,0,0,6.187,6.187h6.686a1.843,1.843,0,0,0,0-3.686Z" transform="translate(-211.725 -150.771)"/><path class="j" d="M284.615,372.44h6.3a3.861,3.861,0,0,0,3.858-3.858v-6.3a3.861,3.861,0,0,0-3.858-3.858h-6.3a3.863,3.863,0,0,0-3.858,3.858v6.3A3.862,3.862,0,0,0,284.615,372.44Zm-.172-10.153a.173.173,0,0,1,.172-.172h6.3a.173.173,0,0,1,.172.172v6.3a.173.173,0,0,1-.172.172h-6.3a.173.173,0,0,1-.172-.172Z" transform="translate(-211.725 -270.829)"/><path class="j" d="M427.209,291.068h-6.3a3.861,3.861,0,0,0-3.858,3.858v6.3a3.861,3.861,0,0,0,3.858,3.858h6.3a3.861,3.861,0,0,0,3.858-3.858v-6.3A3.861,3.861,0,0,0,427.209,291.068Zm.172,10.153a.171.171,0,0,1-.172.172h-6.3a.173.173,0,0,1-.172-.172c.076-6.229-.16-6.467.172-6.467h6.3a.171.171,0,0,1,.172.172Z" transform="translate(-314.712 -219.931)"/><path class="j" d="M284.615,305.078h6.3a3.861,3.861,0,0,0,3.858-3.858v-6.3a3.861,3.861,0,0,0-3.858-3.858h-6.3a3.863,3.863,0,0,0-3.858,3.858v6.3A3.862,3.862,0,0,0,284.615,305.078Zm-.172-10.153a.173.173,0,0,1,.172-.172h6.3a.173.173,0,0,1,.172.172v6.3a.173.173,0,0,1-.172.172h-6.3a.173.173,0,0,1-.172-.172Z" transform="translate(-211.725 -219.931)"/><path class="j" d="M293.779,423.791a3.856,3.856,0,0,0-2.887-1.3h-6.3a3.846,3.846,0,0,0-2.885,1.3c-1.339,1.5-.884,3.138-.973,3.931v4.922a3.863,3.863,0,0,0,3.858,3.858h6.3a3.861,3.861,0,0,0,3.858-3.858v-4.922C294.661,426.946,295.111,425.292,293.779,423.791Zm-2.887,9.025c-6.221-.076-6.47.16-6.47-.172,0-6.666-.074-6.467.172-6.467h6.3c.3,0,.116.42.172,1.546C291.064,427.722,291.224,432.816,290.892,432.816Z" transform="translate(-211.705 -319.234)"/><path class="j" d="M426.23,358.428h-4.339a4.842,4.842,0,0,0-4.836,4.836v19.552a5.286,5.286,0,0,0,5.278,5.281h3.455a5.284,5.284,0,0,0,5.278-5.281V363.264A4.84,4.84,0,0,0,426.23,358.428Zm1.15,24.387a1.594,1.594,0,0,1-1.592,1.595h-3.455a1.6,1.6,0,0,1-1.592-1.595V363.264a1.151,1.151,0,0,1,1.15-1.15h4.339a1.151,1.151,0,0,1,1.15,1.15v19.552Z" transform="translate(-314.712 -270.828)"/><path class="j" d="M170.513,179.933h0c-2.247-.826-3.87-1.422-3.87-3.5,0-1.9,1.26-2.859,3.745-2.859,2.638,0,3.348,1.161,4.277,1.161a1.77,1.77,0,0,0,1.571-1.815c0-1.535-2.5-2.3-4.743-2.5v-1.384a1.746,1.746,0,1,0-3.492,0v1.6a5.711,5.711,0,0,0-4.743,5.974c0,4.289,3.158,5.476,5.7,6.43,2.485.934,4.447,1.671,4.447,4.508,0,2.343-1.3,3.531-3.867,3.531-3.756,0-3.791-2.536-5.224-2.536a1.842,1.842,0,0,0-1.6,1.815c0,1.452,2.163,3.361,5.293,3.856v1.338a1.746,1.746,0,1,0,3.492,0v-1.374c3.367-.634,5.293-3.106,5.293-6.815C176.786,182.238,173.308,180.96,170.513,179.933Z" transform="translate(-122.526 -126.403)"/><path class="j" d="M358.636,422.491h-6.3a3.855,3.855,0,0,0-2.887,1.3c-1.334,1.5-.882,3.138-.971,3.931v4.922a3.861,3.861,0,0,0,3.858,3.858h6.3a3.86,3.86,0,0,0,3.855-3.858v-6.3a3.861,3.861,0,0,0-3.855-3.855Zm0,10.325c-6.221-.076-6.47.16-6.47-.172v-6.3a.172.172,0,0,1,.172-.17h6.3a.17.17,0,0,1,.17.17C358.731,432.583,358.962,432.816,358.636,432.816Z" transform="translate(-262.892 -319.234)"/><path class="j" d="M358.654,291.068h-6.3a3.861,3.861,0,0,0-3.858,3.858v6.3a3.861,3.861,0,0,0,3.858,3.858h6.3a3.8,3.8,0,0,0,1.4-.265,3.862,3.862,0,0,0,2.452-3.592v-6.3A3.862,3.862,0,0,0,358.654,291.068Zm.17,10.153a.171.171,0,0,1-.17.172h-6.3a.173.173,0,0,1-.172-.172v-6.3c0-.332.229-.1,6.47-.172a.171.171,0,0,1,.17.172v6.3Z" transform="translate(-262.911 -219.931)"/><path class="j" d="M360.057,358.693a3.8,3.8,0,0,0-1.4-.265h-6.3a3.861,3.861,0,0,0-3.858,3.858v6.3a3.861,3.861,0,0,0,3.858,3.858h6.3a3.86,3.86,0,0,0,3.855-3.858v-6.3A3.862,3.862,0,0,0,360.057,358.693Zm-1.233,9.887a.171.171,0,0,1-.17.172h-6.3a.173.173,0,0,1-.172-.172v-6.3a.173.173,0,0,1,.172-.172h6.3a.171.171,0,0,1,.17.172Z" transform="translate(-262.911 -270.828)"/><path class="j" d="M321.89,106.728h4.629a1.843,1.843,0,0,0,0-3.686H321.89a1.843,1.843,0,0,0,0,3.686Z" transform="translate(-241.413 -77.859)"/><path class="j" d="M158.013,106.728h32.68a1.843,1.843,0,0,0,0-3.686h-32.68a1.843,1.843,0,0,0,0,3.686Z" transform="translate(-117.587 -77.859)"/><path class="j" d="M163.871,144.158a1.843,1.843,0,0,0,0-3.686h-5.858a1.843,1.843,0,0,0,0,3.686Z" transform="translate(-117.587 -106.141)"/><path class="j" d="M245.436,142.315a1.843,1.843,0,0,0-1.843-1.843H212.142a1.843,1.843,0,0,0,0,3.686h31.452A1.844,1.844,0,0,0,245.436,142.315Z" transform="translate(-158.487 -106.141)"/><path class="b" d="M81.371,404.65c0-.463.171-.6.33-.685a3.167,3.167,0,0,1,2.672.181,2.106,2.106,0,0,0,1,.3c1.818,0,3.255-3.377-1.087-4.124v-.116a1.867,1.867,0,1,0-3.735,0v.354a4.19,4.19,0,0,0-2.848,4.2c0,3.143,2.283,4,3.951,4.627,1.59.6,2.14.859,2.14,1.941,0,.676-.182,1.3-1.5,1.3-1.926,0-1.7-1.523-3.137-1.523a1.925,1.925,0,0,0-1.781,1.909c0,1.277,1.328,2.488,3.179,2.98v.14a1.867,1.867,0,0,0,3.735,0v-.189a4.617,4.617,0,0,0,3.179-4.729C87.462,405.619,81.371,406.46,81.371,404.65Z" transform="translate(-58.045 -300.987)"/></g></svg>