<svg xmlns="http://www.w3.org/2000/svg" xmlns:xlink="http://www.w3.org/1999/xlink" width="464" height="387" viewBox="0 0 464 387"><defs><path id="1ekaa" d="M262 2346c0-2.5 2.5-5 5-5h329c2.5 0 5 2.5 5 5v245c0 2.5-2.5 5-5 5H267c-2.5 0-5-2.5-5-5z"/><path id="1ekab" d="M291 2331c0-2.5 2.5-5 5-5h329c2.5 0 5 2.5 5 5v245c0 2.5-2.5 5-5 5H296c-2.5 0-5-2.5-5-5z"/><path id="1ekac" d="M192 2428.348C192 2328.192 273.192 2247 373.348 2247c100.156 0 181.349 81.192 181.349 181.348 0 100.156-81.193 181.349-181.349 181.349-100.156 0-181.348-81.193-181.348-181.349z"/><path id="1ekai" d="M408.079 2513.448h97.43"/><path id="1ekaj" d="M396.386 2403.242h120.817a5.846 5.846 0 0 1 5.846 5.846v74.075a3.888 3.888 0 0 1-3.888 3.888H394.427a3.888 3.888 0 0 1-3.888-3.888v-74.075a5.846 5.846 0 0 1 5.847-5.846z"/><path id="1ekak" d="M523.05 2409.088v74.046a3.888 3.888 0 0 1-3.889 3.917h-64.895l30.518-83.81h32.419a5.846 5.846 0 0 1 5.846 5.847z"/><path id="1ekal" d="M495.775 2513.448h-77.962a9.764 9.764 0 0 1 9.764-9.735h58.464c5.376 0 9.734 4.358 9.734 9.734z"/><path id="1ekam" d="M475.518 2487.05H438.1l-4.677 16.663h46.772z"/><path id="1ekan" d="M523.05 2409.088v11.693H390.54v-11.693a5.846 5.846 0 0 1 5.846-5.846h120.817a5.846 5.846 0 0 1 5.846 5.846z"/><path id="1ekao" d="M517.203 2403.242h-32.419l-6.372 17.54h44.637v-11.694a5.846 5.846 0 0 0-5.846-5.846z"/><path id="1ekap" d="M506.971 2520.697a27.157 27.157 0 0 0 4.385-.35 3.742 3.742 0 0 1 3.888 1.812 3.771 3.771 0 0 0 5.174 1.374l6.168-3.567a3.8 3.8 0 0 0 1.345-5.145 3.8 3.8 0 0 1 .35-4.297 27.448 27.448 0 0 0 4.386-7.63 3.771 3.771 0 0 1 3.624-2.426 3.8 3.8 0 0 0 3.8-3.8v-7.132a3.8 3.8 0 0 0-3.8-3.8 3.77 3.77 0 0 1-3.537-2.456 27.859 27.859 0 0 0-4.385-7.63 3.742 3.742 0 0 1-.438-4.268 3.83 3.83 0 0 0-1.403-5.203l-6.168-3.566a3.771 3.771 0 0 0-5.174 1.403 3.771 3.771 0 0 1-3.888 1.841 25.49 25.49 0 0 0-8.77 0 3.77 3.77 0 0 1-3.83-1.841 3.8 3.8 0 0 0-5.173-1.403l-6.168 3.566a3.83 3.83 0 0 0-1.404 5.203c.79 1.356.65 3.06-.35 4.268a27.859 27.859 0 0 0-4.444 7.63 3.771 3.771 0 0 1-3.507 2.572 3.8 3.8 0 0 0-3.8 3.8v7.016a3.8 3.8 0 0 0 3.8 3.8 3.77 3.77 0 0 1 3.537 2.427 27.45 27.45 0 0 0 4.384 7.63 3.8 3.8 0 0 1 .351 4.296 3.8 3.8 0 0 0 1.403 5.175l6.168 3.566a3.77 3.77 0 0 0 5.204-1.374 3.742 3.742 0 0 1 3.888-1.812c1.45.225 2.917.333 4.384.321z"/><path id="1ekaq" d="M540.092 2489.506v7.133a3.8 3.8 0 0 1-3.8 3.8 3.8 3.8 0 0 0-3.538 2.456 27.858 27.858 0 0 1-4.385 7.63 3.859 3.859 0 0 0-.847 2.396 3.596 3.596 0 0 0 .497 1.871 3.83 3.83 0 0 1-1.403 5.204l-6.168 3.566a3.771 3.771 0 0 1-5.175-1.403 3.77 3.77 0 0 0-3.887-1.842 25.49 25.49 0 0 1-8.77 0 3.77 3.77 0 0 0-3.888 1.842 3.8 3.8 0 0 1-5.174 1.403l-6.168-3.566a3.83 3.83 0 0 1-1.403-5.204c.191-.327.33-.682.409-1.052l41.217-41.305a3.712 3.712 0 0 0 .76 3.215 27.858 27.858 0 0 1 4.385 7.63 3.8 3.8 0 0 0 3.537 2.455 3.8 3.8 0 0 1 3.8 3.771z"/><path id="1ekar" d="M496.623 2493.102c0-5.715 4.633-10.348 10.348-10.348 5.716 0 10.349 4.633 10.349 10.348 0 5.715-4.633 10.348-10.349 10.348-5.715 0-10.348-4.633-10.348-10.348z"/><path id="1ekas" d="M397.35 2412.012a2.923 2.923 0 1 1 5.847 0 2.923 2.923 0 0 1-5.847 0z"/><path id="1ekat" d="M416.848 2412.012a2.923 2.923 0 1 1 5.847 0 2.923 2.923 0 0 1-5.847 0z"/><path id="1ekau" d="M407.114 2412.012a2.923 2.923 0 1 1 5.847 0 2.923 2.923 0 0 1-5.847 0z"/><path id="1ekav" d="M431.465 2454.428l8.77-8.77a2.935 2.935 0 0 0-4.152-4.151l-10.874 10.904a2.923 2.923 0 0 0 0 4.121l10.874 10.904a2.923 2.923 0 0 0 4.151 0 2.923 2.923 0 0 0 0-4.122z"/><path id="1ekaw" d="M473.325 2467.377a2.923 2.923 0 0 0 4.122 0l10.903-10.757a2.923 2.923 0 0 0 0-4.122l-10.903-10.903a2.925 2.925 0 0 0-4.122 4.15l8.77 8.77-8.77 8.77a2.923 2.923 0 0 0 0 4.092z"/><path id="1ekax" d="M463.62 2442.442a2.923 2.923 0 0 0-4.005 1.082l-10.787 18.942a2.923 2.923 0 1 0 5.058 2.924l10.903-18.855a2.923 2.923 0 0 0-1.169-4.093z"/><path id="1ekay" d="M537.168 2496.668a.877.877 0 0 1-.877.877 6.753 6.753 0 0 0-6.285 4.327 24.73 24.73 0 0 1-3.917 6.81 6.753 6.753 0 0 0-.614 7.601.76.76 0 0 1 0 .643.848.848 0 0 1-.409.556l-6.08 3.449a.877.877 0 0 1-1.199-.35 6.753 6.753 0 0 0-6.928-3.246 23.152 23.152 0 0 1-7.775 0 6.753 6.753 0 0 0-6.928 3.274.906.906 0 0 1-1.199.322l-6.168-3.566a.848.848 0 0 1-.41-.556.76.76 0 0 1 0-.643 6.811 6.811 0 0 0-.613-7.6 24.41 24.41 0 0 1-3.946-6.811 6.665 6.665 0 0 0-6.169-4.21.877.877 0 0 1-.876-.877v-7.132a.848.848 0 0 1 .876-.877 6.723 6.723 0 0 0 6.256-4.327 24 24 0 0 1 3.947-6.81 6.811 6.811 0 0 0 .613-7.601.818.818 0 0 1 0-.673.76.76 0 0 1 .41-.526l6.168-3.566a.819.819 0 0 1 .438 0 .877.877 0 0 1 .731.41 6.782 6.782 0 0 0 6.928 3.273 23.152 23.152 0 0 1 7.776 0 6.811 6.811 0 0 0 6.87-3.45.848.848 0 0 1 1.169-.292l6.168 3.567a.76.76 0 0 1 .409.526.818.818 0 0 1 0 .672 6.723 6.723 0 0 0 .614 7.571 24.877 24.877 0 0 1 3.917 6.84 6.782 6.782 0 0 0 6.226 4.502.848.848 0 0 1 .877.877zm-57.529 9.968a32.152 32.152 0 0 0 2.28 3.888h-60.481a6.811 6.811 0 0 1 6.139-3.888zm-42.328-5.846l2.923-10.816h30.694v6.694a6.782 6.782 0 0 0 1.462 4.122zm-42.884-16.662a.965.965 0 0 1-.964-.965v-59.459h126.663v35.84a6.694 6.694 0 0 0-7.396 2.922.848.848 0 0 1-.877.38 30.023 30.023 0 0 0-9.705 0 .819.819 0 0 1-.877-.38 6.694 6.694 0 0 0-9.179-2.455l-6.168 3.566a6.548 6.548 0 0 0-3.128 4.064 6.782 6.782 0 0 0 .643 5.115.79.79 0 0 1 0 .965 30.49 30.49 0 0 0-4.881 8.448.848.848 0 0 1-.79.555 6.694 6.694 0 0 0-3.975 1.316zm-.964-75.04a2.923 2.923 0 0 1 2.923-2.923h120.817a2.923 2.923 0 0 1 2.923 2.923v8.77H393.463zm142.828 73.841a.848.848 0 0 1-.789-.555 30.489 30.489 0 0 0-4.882-8.449.848.848 0 0 1 0-.964 6.723 6.723 0 0 0-2.455-9.18l-2.193-1.315v-53.378a8.77 8.77 0 0 0-8.77-8.77H396.387a8.77 8.77 0 0 0-8.77 8.77v74.075a6.84 6.84 0 0 0 6.811 6.811h39.96l-2.922 10.816h-3.888a12.658 12.658 0 0 0-12.307 9.734h-7.191a2.923 2.923 0 0 0 0 5.847h74.454c-.05.698.02 1.4.205 2.075a6.577 6.577 0 0 0 3.128 4.093l6.168 3.566a6.723 6.723 0 0 0 9.179-2.485.906.906 0 0 1 .906-.409c3.211.556 6.494.556 9.705 0a.877.877 0 0 1 .906.439 6.723 6.723 0 0 0 5.847 3.332 6.636 6.636 0 0 0 3.361-.877l6.168-3.566a6.694 6.694 0 0 0 3.128-4.093 6.607 6.607 0 0 0-.672-5.086.877.877 0 0 1 0-.994 30.752 30.752 0 0 0 4.882-8.419.818.818 0 0 1 .789-.555 6.753 6.753 0 0 0 6.723-6.724v-7.132a6.723 6.723 0 0 0-6.665-6.607z"/><path id="1ekaz" d="M506.971 2500.527a7.425 7.425 0 1 1 7.425-7.425 7.425 7.425 0 0 1-7.425 7.366zm0-20.697c-7.33 0-13.271 5.942-13.271 13.272s5.942 13.271 13.271 13.271c7.33 0 13.272-5.942 13.272-13.271 0-7.33-5.942-13.272-13.272-13.272z"/><linearGradient id="1ekad" x1="373.35" x2="373.35" y1="2609.7" y2="2247" gradientUnits="userSpaceOnUse"><stop offset="0" stop-color="#fff"/><stop offset="1" stop-color="#e6ebee"/></linearGradient><mask id="1ekaf" width="2" height="2" x="-1" y="-1"><path fill="#fff" d="M262 2341h339v255H262z"/><use xlink:href="#1ekaa"/></mask><filter id="1ekae" width="425" height="356" x="219" y="2298" filterUnits="userSpaceOnUse"><feOffset dy="15" in="SourceGraphic" result="FeOffset1033Out"/><feGaussianBlur in="FeOffset1033Out" result="FeGaussianBlur1034Out" stdDeviation="13.2 13.2"/></filter><mask id="1ekah" width="2" height="2" x="-1" y="-1"><path fill="#fff" d="M291 2326h339v255H291z"/><use xlink:href="#1ekab"/></mask><filter id="1ekag" width="425" height="356" x="248" y="2283" filterUnits="userSpaceOnUse"><feOffset dy="15" in="SourceGraphic" result="FeOffset1049Out"/><feGaussianBlur in="FeOffset1049Out" result="FeGaussianBlur1050Out" stdDeviation="13.2 13.2"/></filter></defs><g><g transform="translate(-192 -2247)"><g><use fill="url(#1ekad)" xlink:href="#1ekac"/></g><g opacity=".37"><g filter="url(#1ekae)"><use fill="none" stroke-opacity=".16" stroke-width="0" mask="url(&quot;#1ekaf&quot;)" xlink:href="#1ekaa"/><use fill-opacity=".16" xlink:href="#1ekaa"/></g><use fill="#fff" xlink:href="#1ekaa"/></g><g><g filter="url(#1ekag)"><use fill="none" stroke-opacity=".16" stroke-width="0" mask="url(&quot;#1ekah&quot;)" xlink:href="#1ekab"/><use fill-opacity=".16" xlink:href="#1ekab"/></g><use fill="#fff" xlink:href="#1ekab"/></g><g><g><g><g/><g><use fill="#fff" xlink:href="#1ekai"/></g><g><use fill="#fcfeff" xlink:href="#1ekaj"/></g><g><use fill="#e5ebf1" xlink:href="#1ekak"/></g><g><use fill="#fff" xlink:href="#1ekal"/></g><g><use fill="#c3cfde" xlink:href="#1ekam"/></g><g><use fill="#0074e4" xlink:href="#1ekan"/></g><g><use fill="#69baf9" xlink:href="#1ekao"/></g><g><use fill="#edf4ff" xlink:href="#1ekal"/></g><g><use fill="#0074e4" xlink:href="#1ekap"/></g><g><use fill="#2d8ae4" xlink:href="#1ekaq"/></g><g><use fill="#fcfeff" xlink:href="#1ekar"/></g><g><use fill="#3d3d63" xlink:href="#1ekas"/></g><g><use fill="#3d3d63" xlink:href="#1ekat"/></g><g><use fill="#3d3d63" xlink:href="#1ekau"/></g><g><use fill="#3d3d63" xlink:href="#1ekav"/></g><g><use fill="#3d3d63" xlink:href="#1ekaw"/></g><g><use fill="#3d3d63" xlink:href="#1ekax"/></g><g><use fill="#3d3d63" xlink:href="#1ekay"/></g><g><use fill="#3d3d63" xlink:href="#1ekaz"/></g></g></g></g></g></g></svg>