<svg xmlns="http://www.w3.org/2000/svg" xmlns:xlink="http://www.w3.org/1999/xlink" width="464" height="387" viewBox="0 0 464 387"><defs><path id="dfpoa" d="M285 1645c0-2.5 2.5-5 5-5h329c2.5 0 5 2.5 5 5v245c0 2.5-2.5 5-5 5H290c-2.5 0-5-2.5-5-5z"/><path id="dfpob" d="M314 1630c0-2.5 2.5-5 5-5h329c2.5 0 5 2.5 5 5v245c0 2.5-2.5 5-5 5H319c-2.5 0-5-2.5-5-5z"/><path id="dfpoc" d="M215 1727.348C215 1627.192 296.192 1546 396.348 1546c100.156 0 181.349 81.192 181.349 181.348 0 100.156-81.193 181.349-181.349 181.349-100.156 0-181.348-81.193-181.348-181.349z"/><path id="dfpoi" d="M560.81 1806.008H406.373v-91.273a4.65 4.65 0 0 1 4.685-4.65h145.065a4.65 4.65 0 0 1 4.685 4.65z"/><path id="dfpoj" d="M483.592 1788.533a188.085 188.085 0 0 1-77.218-16.38v33.855H560.81v-33.855a188.085 188.085 0 0 1-77.217 16.38z"/><path id="dfpok" d="M420.43 1806.008v-79.543h126.359v79.543z"/><path id="dfpol" d="M451.754 1797.048a172.972 172.972 0 0 1-31.325-2.838v11.798h126.325v-39.737c-23.664 18.91-57.485 30.777-95 30.777z"/><path id="dfpom" d="M420.43 1771.982v7.284l26.708 26.742h18.158l31.564-56.254-13.234-13.235z"/><path id="dfpon" d="M503.597 1777.864l1.06-26.093 19.014-19.014 8.447 24.76z"/><path id="dfpoo" d="M455.516 1729.748l26.092-1.06 18.98-18.98-24.725-8.446z"/><path id="dfpop" d="M542.616 1685.155c-26.301-.747-50.456 14.443-61.179 38.472l-5.334 11.866a25.614 25.614 0 0 0 21.715 21.716l11.935-5.335c23.992-10.723 39.162-34.842 38.438-61.11a5.78 5.78 0 0 0-5.575-5.61z"/><path id="dfpoq" d="M484.07 1732.997a76.226 76.226 0 0 1 63.368-44.867 5.745 5.745 0 0 0-4.822-2.975c-26.301-.747-50.456 14.443-61.179 38.472l-5.334 11.866a25.682 25.682 0 0 0 2.94 8.652z"/><path id="dfpor" d="M544.292 1685.497a125.401 125.401 0 0 1-53.553 58.135l-4.206 2.291a29.374 29.374 0 0 1-4.822 2.086 25.545 25.545 0 0 0 16.107 9.165l11.935-5.334c23.98-10.718 39.148-34.82 38.438-61.077a5.71 5.71 0 0 0-3.899-5.266z"/><path id="dfpos" d="M512.967 1710.803a9.61 9.61 0 1 1 19.22 0 9.61 9.61 0 0 1-19.22 0z"/><path id="dfpot" d="M394.679 1806.008h177.826v6.634a7.42 7.42 0 0 1-7.42 7.421H402.1a7.42 7.42 0 0 1-7.421-7.455z"/><path id="dfpou" d="M455.516 1806.008h56.152v6.84a7.113 7.113 0 0 1-7.113 7.113h-41.926a7.113 7.113 0 0 1-7.113-7.113z"/><path id="dfpov" d="M469.16 1783.37a18.261 18.261 0 0 0-12.242 4.685 12.003 12.003 0 0 0-10.26-5.985 11.764 11.764 0 0 0-5.779 1.539 11.695 11.695 0 0 0 1.676-6.498 12.003 12.003 0 0 0-5.471-10.259 19.46 19.46 0 0 0 .342-3.42c0-9.316-7.543-16.874-16.86-16.893v59.47h66.446a18.364 18.364 0 0 0-17.851-22.64z"/><path id="dfpow" d="M522.577 1704.613a6.19 6.19 0 1 1-6.19 6.19 6.19 6.19 0 0 1 6.19-6.087zm0 19.219c7.196 0 13.029-5.833 13.029-13.03 0-7.195-5.833-13.028-13.03-13.028-7.195 0-13.028 5.833-13.028 13.029.018 7.188 5.84 13.01 13.029 13.029z"/><path id="dfpox" d="M569.085 1812.608a4.001 4.001 0 0 1-4 4.001h-50.716c.466-1.176.709-2.428.719-3.693v-3.42h53.997zm-106.456 4.001a3.693 3.693 0 0 1-3.693-3.693v-3.42h49.312v3.42a3.693 3.693 0 0 1-3.693 3.693zm-64.53-4v-3.181h53.997v3.42c.001 1.287.245 2.564.718 3.761H402.1a4.001 4.001 0 0 1-4.001-4zm11.695-97.873a1.265 1.265 0 0 1 1.265-1.232h52.015l-6.84 9.541H420.43a3.42 3.42 0 0 0-3.42 3.42v76.123h-7.216zm67.369-9.439l9.336 3.215a69.557 69.557 0 0 0-8.173 13.679l-1.47 3.248-14.5.582zm65.42-16.551a2.394 2.394 0 0 1 2.256 2.29c.684 24.874-13.732 47.694-36.488 57.76l-11.08 4.924a22.502 22.502 0 0 1-17.714-17.714l4.89-10.977c10.17-22.804 33.11-37.205 58.067-36.454zm-17.647 58.135l3.112 9.336-20.723 14.807.581-14.5 3.42-1.47a69.558 69.558 0 0 0 13.542-8.173zm-55.707 32.898a21.92 21.92 0 0 0-11.593 3.42 15.423 15.423 0 0 0-11.798-4.617 9.851 9.851 0 0 0 0-1.402 15.389 15.389 0 0 0-5.232-11.593v-.958l34.847-19.595a25.923 25.923 0 0 0 1.88 3.112l-15.149 10.601a3.42 3.42 0 0 0 1.95 6.224 3.42 3.42 0 0 0 1.983-.615l15.73-11.012a30.026 30.026 0 0 0 6.464 4.583l-12.824 22.878a21.921 21.921 0 0 0-6.326-.855zm-17.099-49.894c-.01.526.12 1.045.377 1.505a3.42 3.42 0 0 0 3.009 1.778l18.09-.718-.752 1.71a3.214 3.214 0 0 0-.274 1.88c.13.798.313 1.587.548 2.36l-33.548 18.843a20.518 20.518 0 0 0-15.868-13.68v-13.678zm-28.28 72.703v-52.014a13.44 13.44 0 0 1 10.019 12.961c-.006.93-.098 1.857-.274 2.77a3.42 3.42 0 0 0 1.47 3.42 8.618 8.618 0 0 1 4.07 7.386 8.48 8.48 0 0 1-1.162 4.207c-.376.273-.753.478-1.095.752a3.42 3.42 0 0 0-.547 4.72 3.42 3.42 0 0 0 2.633 1.23 3.42 3.42 0 0 0 2.19-.82c.41-.308.82-.616 1.264-.89a8.413 8.413 0 0 1 9.986 1.3 21.545 21.545 0 0 0-2.667 3.933 3.42 3.42 0 0 0 1.47 4.616c.49.241 1.027.37 1.573.376a3.42 3.42 0 0 0 3.044-1.846 14.808 14.808 0 0 1 3.42-4.343 14.978 14.978 0 0 1 24.963 11.182v.958zm67.094 0v-.957a21.715 21.715 0 0 0-9.336-17.851l13.269-23.665c.82 0 1.573.41 2.394.547a3.42 3.42 0 0 0 1.88-.273l1.71-.752-.752 18.09a3.42 3.42 0 0 0 1.813 3.146 3.42 3.42 0 0 0 3.42-.205l28.52-20.518a3.42 3.42 0 0 0 1.265-3.899l-4.89-14.329a68.874 68.874 0 0 0 10.26-12.174h2.735v72.84zm65.18-88.913c.686 0 1.247.546 1.266 1.231v87.682h-7.216v-76.123a3.42 3.42 0 0 0-3.42-3.42h-2.257a67.917 67.917 0 0 0 3.865-9.54zm16.38 88.913h-8.275v-87.852a8.105 8.105 0 0 0-8.105-8.071h-5.95a67.232 67.232 0 0 0 1.436-16.004 9.404 9.404 0 0 0-8.925-8.926 68.395 68.395 0 0 0-51.296 21.168l-14.431-5.027a3.42 3.42 0 0 0-3.865 1.266l-5.3 7.386h-56.734a8.105 8.105 0 0 0-8.104 8.07v87.99h-8.276a3.42 3.42 0 0 0-3.42 3.42v6.6c0 5.987 4.854 10.84 10.84 10.84h162.985c5.987 0 10.84-4.853 10.84-10.84v-6.6a3.42 3.42 0 0 0-3.42-3.42z"/><path id="dfpoy" d="M476.958 1766.27a3.42 3.42 0 0 0-4.822 0l-5.643 5.233a3.42 3.42 0 0 0 2.326 5.916 3.42 3.42 0 0 0 2.36-.957l5.573-5.438a3.42 3.42 0 0 0 .206-4.753z"/><linearGradient id="dfpod" x1="396.35" x2="396.35" y1="1908.7" y2="1546" gradientUnits="userSpaceOnUse"><stop offset="0" stop-color="#fff"/><stop offset="1" stop-color="#e6ebee"/></linearGradient><mask id="dfpof" width="2" height="2" x="-1" y="-1"><path fill="#fff" d="M285 1640h339v255H285z"/><use xlink:href="#dfpoa"/></mask><filter id="dfpoe" width="425" height="356" x="242" y="1597" filterUnits="userSpaceOnUse"><feOffset dy="15" in="SourceGraphic" result="FeOffset1033Out"/><feGaussianBlur in="FeOffset1033Out" result="FeGaussianBlur1034Out" stdDeviation="13.2 13.2"/></filter><mask id="dfpoh" width="2" height="2" x="-1" y="-1"><path fill="#fff" d="M314 1625h339v255H314z"/><use xlink:href="#dfpob"/></mask><filter id="dfpog" width="425" height="356" x="271" y="1582" filterUnits="userSpaceOnUse"><feOffset dy="15" in="SourceGraphic" result="FeOffset1049Out"/><feGaussianBlur in="FeOffset1049Out" result="FeGaussianBlur1050Out" stdDeviation="13.2 13.2"/></filter></defs><g><g transform="translate(-215 -1546)"><g><use fill="url(#dfpod)" xlink:href="#dfpoc"/></g><g opacity=".37"><g filter="url(#dfpoe)"><use fill="none" stroke-opacity=".16" stroke-width="0" mask="url(&quot;#dfpof&quot;)" xlink:href="#dfpoa"/><use fill-opacity=".16" xlink:href="#dfpoa"/></g><use fill="#fff" xlink:href="#dfpoa"/></g><g><g filter="url(#dfpog)"><use fill="none" stroke-opacity=".16" stroke-width="0" mask="url(&quot;#dfpoh&quot;)" xlink:href="#dfpob"/><use fill-opacity=".16" xlink:href="#dfpob"/></g><use fill="#fff" xlink:href="#dfpob"/></g><g><g><g><g/><g><use fill="#d8e3f0" xlink:href="#dfpoi"/></g><g><use fill="#c3cfde" xlink:href="#dfpoj"/></g><g><use fill="#96ddff" xlink:href="#dfpok"/></g><g><use fill="#69baf9" xlink:href="#dfpol"/></g><g><use fill="#d8e3f0" xlink:href="#dfpom"/></g><g><use fill="#f9fafb" xlink:href="#dfpon"/></g><g><use fill="#fff" xlink:href="#dfpoo"/></g><g><use fill="#1f87ec" xlink:href="#dfpop"/></g><g><use fill="#60a1df" xlink:href="#dfpoq"/></g><g><use fill="#0074e4" xlink:href="#dfpor"/></g><g><use fill="#edf4ff" xlink:href="#dfpos"/></g><g><use fill="#c3cfde" xlink:href="#dfpot"/></g><g><use fill="#d8e3f0" xlink:href="#dfpou"/></g><g><use fill="#edf4ff" xlink:href="#dfpov"/></g><g><use fill="#3d3d63" xlink:href="#dfpow"/></g><g><use fill="#3d3d63" xlink:href="#dfpox"/></g><g><use fill="#3d3d63" xlink:href="#dfpoy"/></g></g></g></g></g></g></svg>