<svg xmlns="http://www.w3.org/2000/svg" xmlns:xlink="http://www.w3.org/1999/xlink" width="465" height="387" viewBox="0 0 465 387"><defs><path id="yajqa" d="M800.5 2143c0-2.5 2.5-5 5-5h329c2.5 0 5 2.5 5 5v245c0 2.5-2.5 5-5 5h-329c-2.5 0-5-2.5-5-5z"/><path id="yajqb" d="M829.5 2128c0-2.5 2.5-5 5-5h329c2.5 0 5 2.5 5 5v245c0 2.5-2.5 5-5 5h-329c-2.5 0-5-2.5-5-5z"/><path id="yajqc" d="M730.5 2225.348c0-100.156 81.192-181.348 181.348-181.348 100.156 0 181.349 81.192 181.349 181.348 0 100.156-81.193 181.349-181.349 181.349-100.156 0-181.348-81.193-181.348-181.349z"/><path id="yajqi" d="M943.28 2268.39c0-.895.895-1.79 1.79-1.79h18.71c.895 0 1.79.895 1.79 1.79v49.52c0 .895-.895 1.79-1.79 1.79h-18.71c-.895 0-1.79-.895-1.79-1.79z"/><path id="yajqj" d="M943.28 2309.14v5.19a5.37 5.37 0 0 0 5.37 5.37h11.58a5.37 5.37 0 0 0 5.37-5.37v-5.19z"/><path id="yajqk" d="M932.48 2310.61v-34.89h10.83v34.89z"/><path id="yajql" d="M1037.42 2287.81h2.01a7.98 7.98 0 0 0 0-15.93h-2.04a8.01 8.01 0 0 0 8.01-7.95 8.01 8.01 0 0 0-8.01-7.98h-21.18a7.89 7.89 0 0 0-5.76 2.49 8.49 8.49 0 0 1-2.85-8.13 48.81 48.81 0 0 0 .72-13.53c-.73-8.367-8.103-14.558-16.47-13.83a3.3 3.3 0 0 0-3 3.57l.18 2.01a43.08 43.08 0 0 1-6.39 26.55l-15 19.74a6.6 6.6 0 0 0-1.92 4.65V2308a6.54 6.54 0 0 0 3.27 5.7 43.14 43.14 0 0 0 21.87 6h43.92a7.98 7.98 0 0 0 7.98-7.98 8.01 8.01 0 0 0-7.98-7.98h2.64a7.98 7.98 0 0 0 0-15.93z"/><path id="yajqm" d="M1050.5 2198.35l3 10.32c.215.7.75 1.256 1.44 1.5l10.14 3.42a2.25 2.25 0 0 1 .42 3.99l-9 6a2.28 2.28 0 0 0-.99 1.86v10.71a2.25 2.25 0 0 1-3.63 1.74l-8.43-6.6a2.19 2.19 0 0 0-2.04-.39l-10.23 3.21a2.25 2.25 0 0 1-2.79-3l3.72-10.11a2.22 2.22 0 0 0-.3-2.07l-6.21-8.64a2.25 2.25 0 0 1 1.92-3.54l10.71.39a2.22 2.22 0 0 0 1.89-.9l6.39-8.61a2.25 2.25 0 0 1 3.99.72z"/><path id="yajqn" d="M1054.97 2221a5.34 5.34 0 0 0-2.31 4.29v9.21l-7.23-5.67a5.16 5.16 0 0 0-2.31-1.02 5.04 5.04 0 0 0-2.49.15l-8.76 2.73 3.15-8.61a5.37 5.37 0 0 0-.66-4.86l-5.34-7.47 9.18.33a5.19 5.19 0 0 0 4.41-2.13l5.49-7.35 2.4 8.88a5.34 5.34 0 0 0 3.36 3.54l8.7 3zm10.98-10.26l-9.78-3.3-2.67-9.9a5.25 5.25 0 0 0-9.27-1.68l-6 8.28-10.29-.39a5.25 5.25 0 0 0-4.77 8.25l6 8.43-3.57 9.72a5.19 5.19 0 0 0 1.14 5.4 5.13 5.13 0 0 0 5.37 1.38l9.84-3 8.13 6.33a5.28 5.28 0 0 0 2.28 1.05 4.98 4.98 0 0 0 3.21-.45 5.1 5.1 0 0 0 3-4.65v-10.32l8.55-5.76a5.25 5.25 0 0 0-1.26-9.33z"/><path id="yajqo" d="M1024.64 2190.58a3 3 0 0 0 2.64 1.53 3 3 0 0 0 1.44-.36 3 3 0 0 0 1.17-4.08l-3.12-5.67a3.023 3.023 0 1 0-5.25 3z"/><path id="yajqp" d="M1037 2188h.18a3 3 0 0 0 3-2.85v-3a3.004 3.004 0 0 0-6-.3v3a3 3 0 0 0 2.82 3.15z"/><path id="yajqq" d="M1014.5 2196.58l2.61 1.44a3 3 0 0 0 1.44.36 3 3 0 0 0 1.44-5.61l-2.49-1.44a3.023 3.023 0 1 0-3 5.25z"/><path id="yajqr" d="M954.5 2305.27a3.57 3.57 0 1 0 0 7.14 3.57 3.57 0 0 0 0-7.14z"/><path id="yajqs" d="M1039.43 2284.9h-32.04a4.95 4.95 0 1 1 0-9.9h32.04a4.95 4.95 0 0 1 0 9.9zm-2.01 15.9h-22.65a4.95 4.95 0 1 1 0-9.9h22.65a4.95 4.95 0 0 1 0 9.9zm-2.61 15.9h-16.05a4.95 4.95 0 1 1 0-9.9h16.05a4.95 4.95 0 0 1 0 9.9zm-25.74 0h-18.33a40.56 40.56 0 0 1-20.37-5.52 3.57 3.57 0 0 1-1.77-3v-28.71a3.57 3.57 0 0 1 1.05-2.55l.27-.3 15.21-19.95a45.99 45.99 0 0 0 6.87-28.38l-.18-2.04c0-.15 0-.3.27-.33a12 12 0 0 1 9 2.82 12 12 0 0 1 4.32 8.28c.381 4.25.159 8.532-.66 12.72a11.31 11.31 0 0 0 2.04 9 10.53 10.53 0 0 0-.27 10.26 10.92 10.92 0 0 0-1.35 21.6 10.65 10.65 0 0 0-1.35 5.4 10.92 10.92 0 0 0 6 9.69 11.04 11.04 0 0 0-1.95 6.21 10.62 10.62 0 0 0 1.2 4.8zm28.5-57.75a4.95 4.95 0 0 1 0 9.9h-21.39a4.95 4.95 0 1 1 0-9.9zm-74.85 36v19.29a2.4 2.4 0 0 1-2.37 2.37h-11.7a2.37 2.37 0 0 1-2.37-2.37V2272a2.37 2.37 0 0 1 2.37-2.37h11.58a2.4 2.4 0 0 1 2.37 2.37zm87.78-15a10.95 10.95 0 0 0-4.59-9 10.89 10.89 0 0 0-8.34-18h-21.39a10.62 10.62 0 0 0-5.13 1.35 5.64 5.64 0 0 1-.51-3.3 51.27 51.27 0 0 0 .75-14.37c-.873-10.014-9.696-17.426-19.71-16.56a6.3 6.3 0 0 0-5.73 6.84l.18 2.01a39.99 39.99 0 0 1-5.82 24.45l-12.15 15.9a8.34 8.34 0 0 0-7.83-5.55h-11.58a8.37 8.37 0 0 0-8.37 8.28v.75h-7.8a3 3 0 0 0 0 6h7.8v28.86h-7.8a3 3 0 0 0 0 6h7.8v.75a8.37 8.37 0 0 0 8.37 8.37h11.58a8.4 8.4 0 0 0 7.95-6 46.35 46.35 0 0 0 22.56 6h44.07c6.048 0 10.95-4.903 10.95-10.95a10.77 10.77 0 0 0-2.37-6.78 10.98 10.98 0 0 0 4.98-9 10.83 10.83 0 0 0-2.58-6.99 11.04 11.04 0 0 0 4.71-9.06z"/><linearGradient id="yajqd" x1="911.85" x2="911.85" y1="2406.7" y2="2044" gradientUnits="userSpaceOnUse"><stop offset="0" stop-color="#fff"/><stop offset="1" stop-color="#e6ebee"/></linearGradient><mask id="yajqf" width="2" height="2" x="-1" y="-1"><path fill="#fff" d="M800 2138h340v255H800z"/><use xlink:href="#yajqa"/></mask><filter id="yajqe" width="426" height="356" x="757" y="2095" filterUnits="userSpaceOnUse"><feOffset dy="15" in="SourceGraphic" result="FeOffset1174Out"/><feGaussianBlur in="FeOffset1174Out" result="FeGaussianBlur1175Out" stdDeviation="13.2 13.2"/></filter><mask id="yajqh" width="2" height="2" x="-1" y="-1"><path fill="#fff" d="M829 2123h340v255H829z"/><use xlink:href="#yajqb"/></mask><filter id="yajqg" width="426" height="356" x="786" y="2080" filterUnits="userSpaceOnUse"><feOffset dy="15" in="SourceGraphic" result="FeOffset1190Out"/><feGaussianBlur in="FeOffset1190Out" result="FeGaussianBlur1191Out" stdDeviation="13.2 13.2"/></filter></defs><g><g transform="translate(-730 -2044)"><g><use fill="url(#yajqd)" xlink:href="#yajqc"/></g><g opacity=".37"><g filter="url(#yajqe)"><use fill="none" stroke-opacity=".16" stroke-width="0" mask="url(&quot;#yajqf&quot;)" xlink:href="#yajqa"/><use fill-opacity=".16" xlink:href="#yajqa"/></g><use fill="#fff" xlink:href="#yajqa"/></g><g><g filter="url(#yajqg)"><use fill="none" stroke-opacity=".16" stroke-width="0" mask="url(&quot;#yajqh&quot;)" xlink:href="#yajqb"/><use fill-opacity=".16" xlink:href="#yajqb"/></g><use fill="#fff" xlink:href="#yajqb"/></g><g><g><g><g/><g><use fill="#0074e4" xlink:href="#yajqi"/></g><g><use fill="#67a9eb" xlink:href="#yajqj"/></g><g><use fill="#ffe3ba" xlink:href="#yajqk"/></g><g><use fill="#ffe3ba" xlink:href="#yajql"/></g><g><use fill="#0074e4" xlink:href="#yajqm"/></g><g><use fill="#3d3d63" xlink:href="#yajqn"/></g><g><use fill="#3d3d63" xlink:href="#yajqo"/></g><g><use fill="#3d3d63" xlink:href="#yajqp"/></g><g><use fill="#3d3d63" xlink:href="#yajqq"/></g><g><use fill="#3d3d63" xlink:href="#yajqr"/></g><g><use fill="#3d3d63" xlink:href="#yajqs"/></g></g></g></g></g></g></svg>